solid STL generated by MeshLab
  facet normal  1.373642e-01  9.979206e-02  9.854808e-01
    outer loop
      vertex   0.000000e+00  0.000000e+00  1.100000e+00
      vertex   3.006000e-01  0.000000e+00  1.058100e+00
      vertex   9.290000e-02  2.859000e-01  1.058100e+00
    endloop
  endfacet
  facet normal  4.013640e-01  9.845942e-02  9.106112e-01
    outer loop
      vertex   3.006000e-01  0.000000e+00  1.058100e+00
      vertex   5.783000e-01  0.000000e+00  9.357000e-01
      vertex   3.980000e-01  2.892000e-01  9.839000e-01
    endloop
  endfacet
  facet normal  2.312368e-01  1.679884e-01  9.582847e-01
    outer loop
      vertex   3.006000e-01  0.000000e+00  1.058100e+00
      vertex   3.980000e-01  2.892000e-01  9.839000e-01
      vertex   9.290000e-02  2.859000e-01  1.058100e+00
    endloop
  endfacet
  facet normal  2.176581e-01  3.513175e-01  9.106048e-01
    outer loop
      vertex   9.290000e-02  2.859000e-01  1.058100e+00
      vertex   3.980000e-01  2.892000e-01  9.839000e-01
      vertex   1.787000e-01  5.500000e-01  9.357000e-01
    endloop
  endfacet
  facet normal  6.348624e-01  9.819449e-02  7.663600e-01
    outer loop
      vertex   5.783000e-01  0.000000e+00  9.357000e-01
      vertex   8.120000e-01  0.000000e+00  7.421000e-01
      vertex   6.797000e-01  2.911000e-01  8.144000e-01
    endloop
  endfacet
  facet normal  5.067239e-01  1.752285e-01  8.441125e-01
    outer loop
      vertex   5.783000e-01  0.000000e+00  9.357000e-01
      vertex   6.797000e-01  2.911000e-01  8.144000e-01
      vertex   3.980000e-01  2.892000e-01  9.839000e-01
    endloop
  endfacet
  facet normal  4.812734e-01  3.497532e-01  8.037715e-01
    outer loop
      vertex   3.980000e-01  2.892000e-01  9.839000e-01
      vertex   6.797000e-01  2.911000e-01  8.144000e-01
      vertex   4.869000e-01  5.564000e-01  8.144000e-01
    endloop
  endfacet
  facet normal  3.233102e-01  4.278560e-01  8.440437e-01
    outer loop
      vertex   3.980000e-01  2.892000e-01  9.839000e-01
      vertex   4.869000e-01  5.564000e-01  8.144000e-01
      vertex   1.787000e-01  5.500000e-01  9.357000e-01
    endloop
  endfacet
  facet normal  2.897234e-01  5.733402e-01  7.663820e-01
    outer loop
      vertex   1.787000e-01  5.500000e-01  9.357000e-01
      vertex   4.869000e-01  5.564000e-01  8.144000e-01
      vertex   2.509000e-01  7.723000e-01  7.421000e-01
    endloop
  endfacet
  facet normal  8.201088e-01  9.969229e-02  5.634562e-01
    outer loop
      vertex   8.120000e-01  0.000000e+00  7.421000e-01
      vertex   9.839000e-01  0.000000e+00  4.919000e-01
      vertex   9.049000e-01  2.859000e-01  5.563000e-01
    endloop
  endfacet
  facet normal  7.432867e-01  1.776231e-01  6.449612e-01
    outer loop
      vertex   8.120000e-01  0.000000e+00  7.421000e-01
      vertex   9.049000e-01  2.859000e-01  5.563000e-01
      vertex   6.797000e-01  2.911000e-01  8.144000e-01
    endloop
  endfacet
  facet normal  7.102147e-01  3.466920e-01  6.126987e-01
    outer loop
      vertex   6.797000e-01  2.911000e-01  8.144000e-01
      vertex   9.049000e-01  2.859000e-01  5.563000e-01
      vertex   7.570000e-01  5.500000e-01  5.783000e-01
    endloop
  endfacet
  facet normal  5.984489e-01  4.349075e-01  6.728405e-01
    outer loop
      vertex   6.797000e-01  2.911000e-01  8.144000e-01
      vertex   7.570000e-01  5.500000e-01  5.783000e-01
      vertex   4.869000e-01  5.564000e-01  8.144000e-01
    endloop
  endfacet
  facet normal  5.491270e-01  5.682736e-01  6.128007e-01
    outer loop
      vertex   4.869000e-01  5.564000e-01  8.144000e-01
      vertex   7.570000e-01  5.500000e-01  5.783000e-01
      vertex   5.515000e-01  7.723000e-01  5.563000e-01
    endloop
  endfacet
  facet normal  3.987150e-01  6.518536e-01  6.450685e-01
    outer loop
      vertex   4.869000e-01  5.564000e-01  8.144000e-01
      vertex   5.515000e-01  7.723000e-01  5.563000e-01
      vertex   2.509000e-01  7.723000e-01  7.421000e-01
    endloop
  endfacet
  facet normal  3.481548e-01  7.493441e-01  5.632687e-01
    outer loop
      vertex   2.509000e-01  7.723000e-01  7.421000e-01
      vertex   5.515000e-01  7.723000e-01  5.563000e-01
      vertex   3.040000e-01  9.357000e-01  4.919000e-01
    endloop
  endfacet
  facet normal -5.246362e-02  1.614746e-01  9.854814e-01
    outer loop
      vertex   0.000000e+00  0.000000e+00  1.100000e+00
      vertex   9.290000e-02  2.859000e-01  1.058100e+00
      vertex  -2.432000e-01  1.767000e-01  1.058100e+00
    endloop
  endfacet
  facet normal  3.040038e-02  4.121542e-01  9.106068e-01
    outer loop
      vertex   9.290000e-02  2.859000e-01  1.058100e+00
      vertex   1.787000e-01  5.500000e-01  9.357000e-01
      vertex  -1.520000e-01  4.679000e-01  9.839000e-01
    endloop
  endfacet
  facet normal -8.832120e-02  2.718384e-01  9.582814e-01
    outer loop
      vertex   9.290000e-02  2.859000e-01  1.058100e+00
      vertex  -1.520000e-01  4.679000e-01  9.839000e-01
      vertex  -2.432000e-01  1.767000e-01  1.058100e+00
    endloop
  endfacet
  facet normal -2.668166e-01  3.155937e-01  9.106094e-01
    outer loop
      vertex  -2.432000e-01  1.767000e-01  1.058100e+00
      vertex  -1.520000e-01  4.679000e-01  9.839000e-01
      vertex  -4.679000e-01  3.399000e-01  9.357000e-01
    endloop
  endfacet
  facet normal  1.027283e-01  6.340922e-01  7.664033e-01
    outer loop
      vertex   1.787000e-01  5.500000e-01  9.357000e-01
      vertex   2.509000e-01  7.723000e-01  7.421000e-01
      vertex  -6.690000e-02  7.364000e-01  8.144000e-01
    endloop
  endfacet
  facet normal -1.005276e-02  5.360646e-01  8.441172e-01
    outer loop
      vertex   1.787000e-01  5.500000e-01  9.357000e-01
      vertex  -6.690000e-02  7.364000e-01  8.144000e-01
      vertex  -1.520000e-01  4.679000e-01  9.839000e-01
    endloop
  endfacet
  facet normal -1.839828e-01  5.657380e-01  8.037978e-01
    outer loop
      vertex  -1.520000e-01  4.679000e-01  9.839000e-01
      vertex  -6.690000e-02  7.364000e-01  8.144000e-01
      vertex  -3.787000e-01  6.350000e-01  8.144000e-01
    endloop
  endfacet
  facet normal -3.069587e-01  4.397278e-01  8.440474e-01
    outer loop
      vertex  -1.520000e-01  4.679000e-01  9.839000e-01
      vertex  -3.787000e-01  6.350000e-01  8.144000e-01
      vertex  -4.679000e-01  3.399000e-01  9.357000e-01
    endloop
  endfacet
  facet normal -4.558096e-01  4.527691e-01  7.663144e-01
    outer loop
      vertex  -4.679000e-01  3.399000e-01  9.357000e-01
      vertex  -3.787000e-01  6.350000e-01  8.144000e-01
      vertex  -6.569000e-01  4.773000e-01  7.421000e-01
    endloop
  endfacet
  facet normal  1.585475e-01  8.109326e-01  5.632504e-01
    outer loop
      vertex   2.509000e-01  7.723000e-01  7.421000e-01
      vertex   3.040000e-01  9.357000e-01  4.919000e-01
      vertex   7.700000e-03  9.489000e-01  5.563000e-01
    endloop
  endfacet
  facet normal  6.063041e-02  7.619178e-01  6.448296e-01
    outer loop
      vertex   2.509000e-01  7.723000e-01  7.421000e-01
      vertex   7.700000e-03  9.489000e-01  5.563000e-01
      vertex  -6.690000e-02  7.364000e-01  8.144000e-01
    endloop
  endfacet
  facet normal -1.101462e-01  7.826979e-01  6.125779e-01
    outer loop
      vertex  -6.690000e-02  7.364000e-01  8.144000e-01
      vertex   7.700000e-03  9.489000e-01  5.563000e-01
      vertex  -2.892000e-01  8.899000e-01  5.783000e-01
    endloop
  endfacet
  facet normal -2.287954e-01  7.035344e-01  6.728240e-01
    outer loop
      vertex  -6.690000e-02  7.364000e-01  8.144000e-01
      vertex  -2.892000e-01  8.899000e-01  5.783000e-01
      vertex  -3.787000e-01  6.350000e-01  8.144000e-01
    endloop
  endfacet
  facet normal -3.708006e-01  6.978205e-01  6.128242e-01
    outer loop
      vertex  -3.787000e-01  6.350000e-01  8.144000e-01
      vertex  -2.892000e-01  8.899000e-01  5.783000e-01
      vertex  -5.640000e-01  7.632000e-01  5.563000e-01
    endloop
  endfacet
  facet normal -4.967717e-01  5.806253e-01  6.450521e-01
    outer loop
      vertex  -3.787000e-01  6.350000e-01  8.144000e-01
      vertex  -5.640000e-01  7.632000e-01  5.563000e-01
      vertex  -6.569000e-01  4.773000e-01  7.421000e-01
    endloop
  endfacet
  facet normal -6.048806e-01  5.627180e-01  5.634429e-01
    outer loop
      vertex  -6.569000e-01  4.773000e-01  7.421000e-01
      vertex  -5.640000e-01  7.632000e-01  5.563000e-01
      vertex  -7.960000e-01  5.783000e-01  4.919000e-01
    endloop
  endfacet
  facet normal -1.697849e-01  0.000000e+00  9.854811e-01
    outer loop
      vertex   0.000000e+00  0.000000e+00  1.100000e+00
      vertex  -2.432000e-01  1.767000e-01  1.058100e+00
      vertex  -2.432000e-01 -1.767000e-01  1.058100e+00
    endloop
  endfacet
  facet normal -3.826246e-01  1.561476e-01  9.106131e-01
    outer loop
      vertex  -2.432000e-01  1.767000e-01  1.058100e+00
      vertex  -4.679000e-01  3.399000e-01  9.357000e-01
      vertex  -4.919000e-01 -0.000000e+00  9.839000e-01
    endloop
  endfacet
  facet normal -2.858981e-01  0.000000e+00  9.582600e-01
    outer loop
      vertex  -2.432000e-01  1.767000e-01  1.058100e+00
      vertex  -4.919000e-01 -0.000000e+00  9.839000e-01
      vertex  -2.432000e-01 -1.767000e-01  1.058100e+00
    endloop
  endfacet
  facet normal -3.826246e-01 -1.561476e-01  9.106131e-01
    outer loop
      vertex  -2.432000e-01 -1.767000e-01  1.058100e+00
      vertex  -4.919000e-01 -0.000000e+00  9.839000e-01
      vertex  -4.679000e-01 -3.399000e-01  9.357000e-01
    endloop
  endfacet
  facet normal -5.714553e-01  2.936605e-01  7.662913e-01
    outer loop
      vertex  -4.679000e-01  3.399000e-01  9.357000e-01
      vertex  -6.569000e-01  4.773000e-01  7.421000e-01
      vertex  -7.210000e-01  1.639000e-01  8.144000e-01
    endloop
  endfacet
  facet normal -5.129769e-01  1.559228e-01  8.441225e-01
    outer loop
      vertex  -4.679000e-01  3.399000e-01  9.357000e-01
      vertex  -7.210000e-01  1.639000e-01  8.144000e-01
      vertex  -4.919000e-01 -0.000000e+00  9.839000e-01
    endloop
  endfacet
  facet normal -5.947658e-01  0.000000e+00  8.038989e-01
    outer loop
      vertex  -4.919000e-01 -0.000000e+00  9.839000e-01
      vertex  -7.210000e-01  1.639000e-01  8.144000e-01
      vertex  -7.210000e-01 -1.639000e-01  8.144000e-01
    endloop
  endfacet
  facet normal -5.129769e-01 -1.559228e-01  8.441225e-01
    outer loop
      vertex  -4.919000e-01 -0.000000e+00  9.839000e-01
      vertex  -7.210000e-01 -1.639000e-01  8.144000e-01
      vertex  -4.679000e-01 -3.399000e-01  9.357000e-01
    endloop
  endfacet
  facet normal -5.714553e-01 -2.936605e-01  7.662913e-01
    outer loop
      vertex  -4.679000e-01 -3.399000e-01  9.357000e-01
      vertex  -7.210000e-01 -1.639000e-01  8.144000e-01
      vertex  -6.569000e-01 -4.773000e-01  7.421000e-01
    endloop
  endfacet
  facet normal -7.220906e-01  4.013576e-01  5.634689e-01
    outer loop
      vertex  -6.569000e-01  4.773000e-01  7.421000e-01
      vertex  -7.960000e-01  5.783000e-01  4.919000e-01
      vertex  -9.001000e-01  3.006000e-01  5.563000e-01
    endloop
  endfacet
  facet normal -7.057384e-01  2.931401e-01  6.449823e-01
    outer loop
      vertex  -6.569000e-01  4.773000e-01  7.421000e-01
      vertex  -9.001000e-01  3.006000e-01  5.563000e-01
      vertex  -7.210000e-01  1.639000e-01  8.144000e-01
    endloop
  endfacet
  facet normal -7.783570e-01  1.370214e-01  6.126871e-01
    outer loop
      vertex  -7.210000e-01  1.639000e-01  8.144000e-01
      vertex  -9.001000e-01  3.006000e-01  5.563000e-01
      vertex  -9.357000e-01 -0.000000e+00  5.783000e-01
    endloop
  endfacet
  facet normal -7.398409e-01  0.000000e+00  6.727819e-01
    outer loop
      vertex  -7.210000e-01  1.639000e-01  8.144000e-01
      vertex  -9.357000e-01 -0.000000e+00  5.783000e-01
      vertex  -7.210000e-01 -1.639000e-01  8.144000e-01
    endloop
  endfacet
  facet normal -7.783570e-01 -1.370214e-01  6.126871e-01
    outer loop
      vertex  -7.210000e-01 -1.639000e-01  8.144000e-01
      vertex  -9.357000e-01 -0.000000e+00  5.783000e-01
      vertex  -9.001000e-01 -3.006000e-01  5.563000e-01
    endloop
  endfacet
  facet normal -7.057384e-01 -2.931401e-01  6.449824e-01
    outer loop
      vertex  -7.210000e-01 -1.639000e-01  8.144000e-01
      vertex  -9.001000e-01 -3.006000e-01  5.563000e-01
      vertex  -6.569000e-01 -4.773000e-01  7.421000e-01
    endloop
  endfacet
  facet normal -7.220906e-01 -4.013576e-01  5.634689e-01
    outer loop
      vertex  -6.569000e-01 -4.773000e-01  7.421000e-01
      vertex  -9.001000e-01 -3.006000e-01  5.563000e-01
      vertex  -7.960000e-01 -5.783000e-01  4.919000e-01
    endloop
  endfacet
  facet normal -5.246362e-02 -1.614746e-01  9.854814e-01
    outer loop
      vertex   0.000000e+00  0.000000e+00  1.100000e+00
      vertex  -2.432000e-01 -1.767000e-01  1.058100e+00
      vertex   9.290000e-02 -2.859000e-01  1.058100e+00
    endloop
  endfacet
  facet normal -2.668166e-01 -3.155937e-01  9.106094e-01
    outer loop
      vertex  -2.432000e-01 -1.767000e-01  1.058100e+00
      vertex  -4.679000e-01 -3.399000e-01  9.357000e-01
      vertex  -1.520000e-01 -4.679000e-01  9.839000e-01
    endloop
  endfacet
  facet normal -8.832120e-02 -2.718384e-01  9.582814e-01
    outer loop
      vertex  -2.432000e-01 -1.767000e-01  1.058100e+00
      vertex  -1.520000e-01 -4.679000e-01  9.839000e-01
      vertex   9.290000e-02 -2.859000e-01  1.058100e+00
    endloop
  endfacet
  facet normal  3.040038e-02 -4.121542e-01  9.106068e-01
    outer loop
      vertex   9.290000e-02 -2.859000e-01  1.058100e+00
      vertex  -1.520000e-01 -4.679000e-01  9.839000e-01
      vertex   1.787000e-01 -5.500000e-01  9.357000e-01
    endloop
  endfacet
  facet normal -4.558096e-01 -4.527691e-01  7.663144e-01
    outer loop
      vertex  -4.679000e-01 -3.399000e-01  9.357000e-01
      vertex  -6.569000e-01 -4.773000e-01  7.421000e-01
      vertex  -3.787000e-01 -6.350000e-01  8.144000e-01
    endloop
  endfacet
  facet normal -3.069587e-01 -4.397278e-01  8.440474e-01
    outer loop
      vertex  -4.679000e-01 -3.399000e-01  9.357000e-01
      vertex  -3.787000e-01 -6.350000e-01  8.144000e-01
      vertex  -1.520000e-01 -4.679000e-01  9.839000e-01
    endloop
  endfacet
  facet normal -1.839828e-01 -5.657380e-01  8.037978e-01
    outer loop
      vertex  -1.520000e-01 -4.679000e-01  9.839000e-01
      vertex  -3.787000e-01 -6.350000e-01  8.144000e-01
      vertex  -6.690000e-02 -7.364000e-01  8.144000e-01
    endloop
  endfacet
  facet normal -1.005276e-02 -5.360646e-01  8.441171e-01
    outer loop
      vertex  -1.520000e-01 -4.679000e-01  9.839000e-01
      vertex  -6.690000e-02 -7.364000e-01  8.144000e-01
      vertex   1.787000e-01 -5.500000e-01  9.357000e-01
    endloop
  endfacet
  facet normal  1.027283e-01 -6.340922e-01  7.664033e-01
    outer loop
      vertex   1.787000e-01 -5.500000e-01  9.357000e-01
      vertex  -6.690000e-02 -7.364000e-01  8.144000e-01
      vertex   2.509000e-01 -7.723000e-01  7.421000e-01
    endloop
  endfacet
  facet normal -6.048806e-01 -5.627180e-01  5.634429e-01
    outer loop
      vertex  -6.569000e-01 -4.773000e-01  7.421000e-01
      vertex  -7.960000e-01 -5.783000e-01  4.919000e-01
      vertex  -5.640000e-01 -7.632000e-01  5.563000e-01
    endloop
  endfacet
  facet normal -4.967717e-01 -5.806253e-01  6.450520e-01
    outer loop
      vertex  -6.569000e-01 -4.773000e-01  7.421000e-01
      vertex  -5.640000e-01 -7.632000e-01  5.563000e-01
      vertex  -3.787000e-01 -6.350000e-01  8.144000e-01
    endloop
  endfacet
  facet normal -3.708006e-01 -6.978205e-01  6.128242e-01
    outer loop
      vertex  -3.787000e-01 -6.350000e-01  8.144000e-01
      vertex  -5.640000e-01 -7.632000e-01  5.563000e-01
      vertex  -2.892000e-01 -8.899000e-01  5.783000e-01
    endloop
  endfacet
  facet normal -2.287954e-01 -7.035344e-01  6.728240e-01
    outer loop
      vertex  -3.787000e-01 -6.350000e-01  8.144000e-01
      vertex  -2.892000e-01 -8.899000e-01  5.783000e-01
      vertex  -6.690000e-02 -7.364000e-01  8.144000e-01
    endloop
  endfacet
  facet normal -1.101462e-01 -7.826979e-01  6.125779e-01
    outer loop
      vertex  -6.690000e-02 -7.364000e-01  8.144000e-01
      vertex  -2.892000e-01 -8.899000e-01  5.783000e-01
      vertex   7.700000e-03 -9.489000e-01  5.563000e-01
    endloop
  endfacet
  facet normal  6.063041e-02 -7.619178e-01  6.448296e-01
    outer loop
      vertex  -6.690000e-02 -7.364000e-01  8.144000e-01
      vertex   7.700000e-03 -9.489000e-01  5.563000e-01
      vertex   2.509000e-01 -7.723000e-01  7.421000e-01
    endloop
  endfacet
  facet normal  1.585475e-01 -8.109326e-01  5.632504e-01
    outer loop
      vertex   2.509000e-01 -7.723000e-01  7.421000e-01
      vertex   7.700000e-03 -9.489000e-01  5.563000e-01
      vertex   3.040000e-01 -9.357000e-01  4.919000e-01
    endloop
  endfacet
  facet normal  1.373642e-01 -9.979206e-02  9.854808e-01
    outer loop
      vertex   0.000000e+00  0.000000e+00  1.100000e+00
      vertex   9.290000e-02 -2.859000e-01  1.058100e+00
      vertex   3.006000e-01  0.000000e+00  1.058100e+00
    endloop
  endfacet
  facet normal  2.176581e-01 -3.513175e-01  9.106048e-01
    outer loop
      vertex   9.290000e-02 -2.859000e-01  1.058100e+00
      vertex   1.787000e-01 -5.500000e-01  9.357000e-01
      vertex   3.980000e-01 -2.892000e-01  9.839000e-01
    endloop
  endfacet
  facet normal  2.312368e-01 -1.679884e-01  9.582847e-01
    outer loop
      vertex   9.290000e-02 -2.859000e-01  1.058100e+00
      vertex   3.980000e-01 -2.892000e-01  9.839000e-01
      vertex   3.006000e-01  0.000000e+00  1.058100e+00
    endloop
  endfacet
  facet normal  4.013640e-01 -9.845942e-02  9.106112e-01
    outer loop
      vertex   3.006000e-01  0.000000e+00  1.058100e+00
      vertex   3.980000e-01 -2.892000e-01  9.839000e-01
      vertex   5.783000e-01  0.000000e+00  9.357000e-01
    endloop
  endfacet
  facet normal  2.897234e-01 -5.733402e-01  7.663820e-01
    outer loop
      vertex   1.787000e-01 -5.500000e-01  9.357000e-01
      vertex   2.509000e-01 -7.723000e-01  7.421000e-01
      vertex   4.869000e-01 -5.564000e-01  8.144000e-01
    endloop
  endfacet
  facet normal  3.233102e-01 -4.278560e-01  8.440437e-01
    outer loop
      vertex   1.787000e-01 -5.500000e-01  9.357000e-01
      vertex   4.869000e-01 -5.564000e-01  8.144000e-01
      vertex   3.980000e-01 -2.892000e-01  9.839000e-01
    endloop
  endfacet
  facet normal  4.812734e-01 -3.497532e-01  8.037715e-01
    outer loop
      vertex   3.980000e-01 -2.892000e-01  9.839000e-01
      vertex   4.869000e-01 -5.564000e-01  8.144000e-01
      vertex   6.797000e-01 -2.911000e-01  8.144000e-01
    endloop
  endfacet
  facet normal  5.067239e-01 -1.752285e-01  8.441125e-01
    outer loop
      vertex   3.980000e-01 -2.892000e-01  9.839000e-01
      vertex   6.797000e-01 -2.911000e-01  8.144000e-01
      vertex   5.783000e-01  0.000000e+00  9.357000e-01
    endloop
  endfacet
  facet normal  6.348624e-01 -9.819449e-02  7.663600e-01
    outer loop
      vertex   5.783000e-01  0.000000e+00  9.357000e-01
      vertex   6.797000e-01 -2.911000e-01  8.144000e-01
      vertex   8.120000e-01  0.000000e+00  7.421000e-01
    endloop
  endfacet
  facet normal  3.481548e-01 -7.493441e-01  5.632687e-01
    outer loop
      vertex   2.509000e-01 -7.723000e-01  7.421000e-01
      vertex   3.040000e-01 -9.357000e-01  4.919000e-01
      vertex   5.515000e-01 -7.723000e-01  5.563000e-01
    endloop
  endfacet
  facet normal  3.987150e-01 -6.518536e-01  6.450685e-01
    outer loop
      vertex   2.509000e-01 -7.723000e-01  7.421000e-01
      vertex   5.515000e-01 -7.723000e-01  5.563000e-01
      vertex   4.869000e-01 -5.564000e-01  8.144000e-01
    endloop
  endfacet
  facet normal  5.491270e-01 -5.682736e-01  6.128007e-01
    outer loop
      vertex   4.869000e-01 -5.564000e-01  8.144000e-01
      vertex   5.515000e-01 -7.723000e-01  5.563000e-01
      vertex   7.570000e-01 -5.500000e-01  5.783000e-01
    endloop
  endfacet
  facet normal  5.984489e-01 -4.349075e-01  6.728405e-01
    outer loop
      vertex   4.869000e-01 -5.564000e-01  8.144000e-01
      vertex   7.570000e-01 -5.500000e-01  5.783000e-01
      vertex   6.797000e-01 -2.911000e-01  8.144000e-01
    endloop
  endfacet
  facet normal  7.102147e-01 -3.466920e-01  6.126987e-01
    outer loop
      vertex   6.797000e-01 -2.911000e-01  8.144000e-01
      vertex   7.570000e-01 -5.500000e-01  5.783000e-01
      vertex   9.049000e-01 -2.859000e-01  5.563000e-01
    endloop
  endfacet
  facet normal  7.432867e-01 -1.776231e-01  6.449612e-01
    outer loop
      vertex   6.797000e-01 -2.911000e-01  8.144000e-01
      vertex   9.049000e-01 -2.859000e-01  5.563000e-01
      vertex   8.120000e-01  0.000000e+00  7.421000e-01
    endloop
  endfacet
  facet normal  8.201088e-01 -9.969229e-02  5.634562e-01
    outer loop
      vertex   8.120000e-01  0.000000e+00  7.421000e-01
      vertex   9.049000e-01 -2.859000e-01  5.563000e-01
      vertex   9.839000e-01  0.000000e+00  4.919000e-01
    endloop
  endfacet
  facet normal  9.573341e-01  0.000000e+00  2.889835e-01
    outer loop
      vertex   9.839000e-01  0.000000e+00  4.919000e-01
      vertex   1.055200e+00 -1.767000e-01  2.557000e-01
      vertex   1.055200e+00  1.767000e-01  2.557000e-01
    endloop
  endfacet
  facet normal  9.856230e-01 -1.560062e-01  6.487938e-02
    outer loop
      vertex   1.055200e+00 -1.767000e-01  2.557000e-01
      vertex   1.046200e+00 -3.399000e-01  0.000000e+00
      vertex   1.100000e+00 -0.000000e+00  0.000000e+00
    endloop
  endfacet
  facet normal  9.849961e-01 -0.000000e+00  1.725767e-01
    outer loop
      vertex   1.055200e+00 -1.767000e-01  2.557000e-01
      vertex   1.100000e+00 -0.000000e+00  0.000000e+00
      vertex   1.055200e+00  1.767000e-01  2.557000e-01
    endloop
  endfacet
  facet normal  9.856230e-01  1.560062e-01  6.487938e-02
    outer loop
      vertex   1.055200e+00  1.767000e-01  2.557000e-01
      vertex   1.100000e+00 -0.000000e+00  0.000000e+00
      vertex   1.046200e+00  3.399000e-01  0.000000e+00
    endloop
  endfacet
  facet normal  9.408961e-01 -2.937964e-01 -1.685175e-01
    outer loop
      vertex   1.046200e+00 -3.399000e-01  0.000000e+00
      vertex   9.575000e-01 -4.773000e-01 -2.557000e-01
      vertex   1.050900e+00 -1.639000e-01 -2.806000e-01
    endloop
  endfacet
  facet normal  9.844388e-01 -1.558188e-01 -8.124479e-02
    outer loop
      vertex   1.046200e+00 -3.399000e-01  0.000000e+00
      vertex   1.050900e+00 -1.639000e-01 -2.806000e-01
      vertex   1.100000e+00 -0.000000e+00  0.000000e+00
    endloop
  endfacet
  facet normal  9.850334e-01  0.000000e+00 -1.723634e-01
    outer loop
      vertex   1.100000e+00 -0.000000e+00  0.000000e+00
      vertex   1.050900e+00 -1.639000e-01 -2.806000e-01
      vertex   1.050900e+00  1.639000e-01 -2.806000e-01
    endloop
  endfacet
  facet normal  9.844388e-01  1.558188e-01 -8.124479e-02
    outer loop
      vertex   1.100000e+00 -0.000000e+00  0.000000e+00
      vertex   1.050900e+00  1.639000e-01 -2.806000e-01
      vertex   1.046200e+00  3.399000e-01  0.000000e+00
    endloop
  endfacet
  facet normal  9.408961e-01  2.937964e-01 -1.685175e-01
    outer loop
      vertex   1.046200e+00  3.399000e-01  0.000000e+00
      vertex   1.050900e+00  1.639000e-01 -2.806000e-01
      vertex   9.575000e-01  4.773000e-01 -2.557000e-01
    endloop
  endfacet
  facet normal  8.269520e-01 -4.013230e-01 -3.938150e-01
    outer loop
      vertex   9.575000e-01 -4.773000e-01 -2.557000e-01
      vertex   7.960000e-01 -5.783000e-01 -4.919000e-01
      vertex   9.001000e-01 -3.006000e-01 -5.563000e-01
    endloop
  endfacet
  facet normal  8.924841e-01 -2.932139e-01 -3.427793e-01
    outer loop
      vertex   9.575000e-01 -4.773000e-01 -2.557000e-01
      vertex   9.001000e-01 -3.006000e-01 -5.563000e-01
      vertex   1.050900e+00 -1.639000e-01 -2.806000e-01
    endloop
  endfacet
  facet normal  8.960892e-01 -1.370229e-01 -4.221952e-01
    outer loop
      vertex   1.050900e+00 -1.639000e-01 -2.806000e-01
      vertex   9.001000e-01 -3.006000e-01 -5.563000e-01
      vertex   9.357000e-01 -0.000000e+00 -5.783000e-01
    endloop
  endfacet
  facet normal  9.326089e-01  0.000000e+00 -3.608886e-01
    outer loop
      vertex   1.050900e+00 -1.639000e-01 -2.806000e-01
      vertex   9.357000e-01 -0.000000e+00 -5.783000e-01
      vertex   1.050900e+00  1.639000e-01 -2.806000e-01
    endloop
  endfacet
  facet normal  8.960892e-01  1.370229e-01 -4.221952e-01
    outer loop
      vertex   1.050900e+00  1.639000e-01 -2.806000e-01
      vertex   9.357000e-01 -0.000000e+00 -5.783000e-01
      vertex   9.001000e-01  3.006000e-01 -5.563000e-01
    endloop
  endfacet
  facet normal  8.924841e-01  2.932139e-01 -3.427793e-01
    outer loop
      vertex   1.050900e+00  1.639000e-01 -2.806000e-01
      vertex   9.001000e-01  3.006000e-01 -5.563000e-01
      vertex   9.575000e-01  4.773000e-01 -2.557000e-01
    endloop
  endfacet
  facet normal  8.269520e-01  4.013230e-01 -3.938150e-01
    outer loop
      vertex   9.575000e-01  4.773000e-01 -2.557000e-01
      vertex   9.001000e-01  3.006000e-01 -5.563000e-01
      vertex   7.960000e-01  5.783000e-01 -4.919000e-01
    endloop
  endfacet
  facet normal  2.958206e-01  9.104880e-01  2.889667e-01
    outer loop
      vertex   3.040000e-01  9.357000e-01  4.919000e-01
      vertex   4.941000e-01  9.489000e-01  2.557000e-01
      vertex   1.580000e-01  1.058100e+00  2.557000e-01
    endloop
  endfacet
  facet normal  4.530938e-01  8.890842e-01  6.507968e-02
    outer loop
      vertex   4.941000e-01  9.489000e-01  2.557000e-01
      vertex   6.466000e-01  8.899000e-01  0.000000e+00
      vertex   3.399000e-01  1.046200e+00  0.000000e+00
    endloop
  endfacet
  facet normal  3.043484e-01  9.367353e-01  1.729130e-01
    outer loop
      vertex   4.941000e-01  9.489000e-01  2.557000e-01
      vertex   3.399000e-01  1.046200e+00  0.000000e+00
      vertex   1.580000e-01  1.058100e+00  2.557000e-01
    endloop
  endfacet
  facet normal  1.560039e-01  9.856082e-01  6.510916e-02
    outer loop
      vertex   1.580000e-01  1.058100e+00  2.557000e-01
      vertex   3.399000e-01  1.046200e+00  0.000000e+00
      vertex  -0.000000e+00  1.100000e+00  0.000000e+00
    endloop
  endfacet
  facet normal  5.701680e-01  8.041009e-01 -1.683155e-01
    outer loop
      vertex   6.466000e-01  8.899000e-01  0.000000e+00
      vertex   7.498000e-01  7.632000e-01 -2.557000e-01
      vertex   4.807000e-01  9.488000e-01 -2.806000e-01
    endloop
  endfacet
  facet normal  4.525583e-01  8.880336e-01 -8.116273e-02
    outer loop
      vertex   6.466000e-01  8.899000e-01  0.000000e+00
      vertex   4.807000e-01  9.488000e-01 -2.806000e-01
      vertex   3.399000e-01  1.046200e+00  0.000000e+00
    endloop
  endfacet
  facet normal  3.042686e-01  9.368353e-01 -1.725116e-01
    outer loop
      vertex   3.399000e-01  1.046200e+00  0.000000e+00
      vertex   4.807000e-01  9.488000e-01 -2.806000e-01
      vertex   1.688000e-01  1.050100e+00 -2.806000e-01
    endloop
  endfacet
  facet normal  1.558177e-01  9.844320e-01 -8.132996e-02
    outer loop
      vertex   3.399000e-01  1.046200e+00  0.000000e+00
      vertex   1.688000e-01  1.050100e+00 -2.806000e-01
      vertex  -0.000000e+00  1.100000e+00  0.000000e+00
    endloop
  endfacet
  facet normal  1.129066e-02  9.856392e-01 -1.684875e-01
    outer loop
      vertex  -0.000000e+00  1.100000e+00  0.000000e+00
      vertex   1.688000e-01  1.050100e+00 -2.806000e-01
      vertex  -1.580000e-01  1.058100e+00 -2.557000e-01
    endloop
  endfacet
  facet normal  6.372525e-01  6.623930e-01 -3.938840e-01
    outer loop
      vertex   7.498000e-01  7.632000e-01 -2.557000e-01
      vertex   7.960000e-01  5.783000e-01 -4.919000e-01
      vertex   5.640000e-01  7.632000e-01 -5.563000e-01
    endloop
  endfacet
  facet normal  5.546450e-01  7.581822e-01 -3.428245e-01
    outer loop
      vertex   7.498000e-01  7.632000e-01 -2.557000e-01
      vertex   5.640000e-01  7.632000e-01 -5.563000e-01
      vertex   4.807000e-01  9.488000e-01 -2.806000e-01
    endloop
  endfacet
  facet normal  4.072137e-01  8.098992e-01 -4.221851e-01
    outer loop
      vertex   4.807000e-01  9.488000e-01 -2.806000e-01
      vertex   5.640000e-01  7.632000e-01 -5.563000e-01
      vertex   2.892000e-01  8.899000e-01 -5.783000e-01
    endloop
  endfacet
  facet normal  2.880912e-01  8.870256e-01 -3.608172e-01
    outer loop
      vertex   4.807000e-01  9.488000e-01 -2.806000e-01
      vertex   2.892000e-01  8.899000e-01 -5.783000e-01
      vertex   1.688000e-01  1.050100e+00 -2.806000e-01
    endloop
  endfacet
  facet normal  1.464940e-01  8.946051e-01 -4.221626e-01
    outer loop
      vertex   1.688000e-01  1.050100e+00 -2.806000e-01
      vertex   2.892000e-01  8.899000e-01 -5.783000e-01
      vertex  -7.700000e-03  9.489000e-01 -5.563000e-01
    endloop
  endfacet
  facet normal -3.124348e-03  9.393960e-01 -3.428198e-01
    outer loop
      vertex   1.688000e-01  1.050100e+00 -2.806000e-01
      vertex  -7.700000e-03  9.489000e-01 -5.563000e-01
      vertex  -1.580000e-01  1.058100e+00 -2.557000e-01
    endloop
  endfacet
  facet normal -1.261602e-01  9.104824e-01 -3.938342e-01
    outer loop
      vertex  -1.580000e-01  1.058100e+00 -2.557000e-01
      vertex  -7.700000e-03  9.489000e-01 -5.563000e-01
      vertex  -3.040000e-01  9.357000e-01 -4.919000e-01
    endloop
  endfacet
  facet normal -7.745258e-01  5.626756e-01  2.889740e-01
    outer loop
      vertex  -7.960000e-01  5.783000e-01  4.919000e-01
      vertex  -7.498000e-01  7.632000e-01  2.557000e-01
      vertex  -9.575000e-01  4.773000e-01  2.557000e-01
    endloop
  endfacet
  facet normal -7.056184e-01  7.056184e-01  6.484964e-02
    outer loop
      vertex  -7.498000e-01  7.632000e-01  2.557000e-01
      vertex  -6.466000e-01  8.899000e-01  0.000000e+00
      vertex  -8.899000e-01  6.466000e-01  0.000000e+00
    endloop
  endfacet
  facet normal -7.968952e-01  5.789266e-01  1.726328e-01
    outer loop
      vertex  -7.498000e-01  7.632000e-01  2.557000e-01
      vertex  -8.899000e-01  6.466000e-01  0.000000e+00
      vertex  -9.575000e-01  4.773000e-01  2.557000e-01
    endloop
  endfacet
  facet normal -8.890919e-01  4.530977e-01  6.494672e-02
    outer loop
      vertex  -9.575000e-01  4.773000e-01  2.557000e-01
      vertex  -8.899000e-01  6.466000e-01  0.000000e+00
      vertex  -1.046200e+00  3.399000e-01  0.000000e+00
    endloop
  endfacet
  facet normal -5.885231e-01  7.907164e-01 -1.685473e-01
    outer loop
      vertex  -6.466000e-01  8.899000e-01  0.000000e+00
      vertex  -4.941000e-01  9.489000e-01 -2.557000e-01
      vertex  -7.538000e-01  7.503000e-01 -2.806000e-01
    endloop
  endfacet
  facet normal -7.047616e-01  7.047616e-01 -8.137680e-02
    outer loop
      vertex  -6.466000e-01  8.899000e-01  0.000000e+00
      vertex  -7.538000e-01  7.503000e-01 -2.806000e-01
      vertex  -8.899000e-01  6.466000e-01  0.000000e+00
    endloop
  endfacet
  facet normal -7.967336e-01  5.792243e-01 -1.723804e-01
    outer loop
      vertex  -8.899000e-01  6.466000e-01  0.000000e+00
      vertex  -7.538000e-01  7.503000e-01 -2.806000e-01
      vertex  -9.466000e-01  4.851000e-01 -2.806000e-01
    endloop
  endfacet
  facet normal -8.880432e-01  4.525632e-01 -8.102966e-02
    outer loop
      vertex  -8.899000e-01  6.466000e-01  0.000000e+00
      vertex  -9.466000e-01  4.851000e-01 -2.806000e-01
      vertex  -1.046200e+00  3.399000e-01  0.000000e+00
    endloop
  endfacet
  facet normal -9.339435e-01  3.152857e-01 -1.683581e-01
    outer loop
      vertex  -1.046200e+00  3.399000e-01  0.000000e+00
      vertex  -9.466000e-01  4.851000e-01 -2.806000e-01
      vertex  -1.055200e+00  1.767000e-01 -2.557000e-01
    endloop
  endfacet
  facet normal -4.329093e-01  8.109028e-01 -3.937339e-01
    outer loop
      vertex  -4.941000e-01  9.489000e-01 -2.557000e-01
      vertex  -3.040000e-01  9.357000e-01 -4.919000e-01
      vertex  -5.515000e-01  7.723000e-01 -5.563000e-01
    endloop
  endfacet
  facet normal -5.497520e-01  7.618393e-01 -3.425983e-01
    outer loop
      vertex  -4.941000e-01  9.489000e-01 -2.557000e-01
      vertex  -5.515000e-01  7.723000e-01 -5.563000e-01
      vertex  -7.538000e-01  7.503000e-01 -2.806000e-01
    endloop
  endfacet
  facet normal -6.445066e-01  6.375666e-01 -4.220428e-01
    outer loop
      vertex  -7.538000e-01  7.503000e-01 -2.806000e-01
      vertex  -5.515000e-01  7.723000e-01 -5.563000e-01
      vertex  -7.570000e-01  5.500000e-01 -5.783000e-01
    endloop
  endfacet
  facet normal -7.543384e-01  5.484030e-01 -3.608707e-01
    outer loop
      vertex  -7.538000e-01  7.503000e-01 -2.806000e-01
      vertex  -7.570000e-01  5.500000e-01 -5.783000e-01
      vertex  -9.466000e-01  4.851000e-01 -2.806000e-01
    endloop
  endfacet
  facet normal -8.054268e-01  4.158728e-01 -4.223002e-01
    outer loop
      vertex  -9.466000e-01  4.851000e-01 -2.806000e-01
      vertex  -7.570000e-01  5.500000e-01 -5.783000e-01
      vertex  -9.049000e-01  2.859000e-01 -5.563000e-01
    endloop
  endfacet
  facet normal -8.943923e-01  2.872707e-01 -3.428382e-01
    outer loop
      vertex  -9.466000e-01  4.851000e-01 -2.806000e-01
      vertex  -9.049000e-01  2.859000e-01 -5.563000e-01
      vertex  -1.055200e+00  1.767000e-01 -2.557000e-01
    endloop
  endfacet
  facet normal -9.049073e-01  1.613289e-01 -3.938471e-01
    outer loop
      vertex  -1.055200e+00  1.767000e-01 -2.557000e-01
      vertex  -9.049000e-01  2.859000e-01 -5.563000e-01
      vertex  -9.839000e-01 -0.000000e+00 -4.919000e-01
    endloop
  endfacet
  facet normal -7.745258e-01 -5.626756e-01  2.889740e-01
    outer loop
      vertex  -7.960000e-01 -5.783000e-01  4.919000e-01
      vertex  -9.575000e-01 -4.773000e-01  2.557000e-01
      vertex  -7.498000e-01 -7.632000e-01  2.557000e-01
    endloop
  endfacet
  facet normal -8.890919e-01 -4.530977e-01  6.494672e-02
    outer loop
      vertex  -9.575000e-01 -4.773000e-01  2.557000e-01
      vertex  -1.046200e+00 -3.399000e-01  0.000000e+00
      vertex  -8.899000e-01 -6.466000e-01  0.000000e+00
    endloop
  endfacet
  facet normal -7.968952e-01 -5.789266e-01  1.726328e-01
    outer loop
      vertex  -9.575000e-01 -4.773000e-01  2.557000e-01
      vertex  -8.899000e-01 -6.466000e-01  0.000000e+00
      vertex  -7.498000e-01 -7.632000e-01  2.557000e-01
    endloop
  endfacet
  facet normal -7.056184e-01 -7.056184e-01  6.484964e-02
    outer loop
      vertex  -7.498000e-01 -7.632000e-01  2.557000e-01
      vertex  -8.899000e-01 -6.466000e-01  0.000000e+00
      vertex  -6.466000e-01 -8.899000e-01  0.000000e+00
    endloop
  endfacet
  facet normal -9.339435e-01 -3.152857e-01 -1.683581e-01
    outer loop
      vertex  -1.046200e+00 -3.399000e-01  0.000000e+00
      vertex  -1.055200e+00 -1.767000e-01 -2.557000e-01
      vertex  -9.466000e-01 -4.851000e-01 -2.806000e-01
    endloop
  endfacet
  facet normal -8.880432e-01 -4.525632e-01 -8.102966e-02
    outer loop
      vertex  -1.046200e+00 -3.399000e-01  0.000000e+00
      vertex  -9.466000e-01 -4.851000e-01 -2.806000e-01
      vertex  -8.899000e-01 -6.466000e-01  0.000000e+00
    endloop
  endfacet
  facet normal -7.967336e-01 -5.792243e-01 -1.723804e-01
    outer loop
      vertex  -8.899000e-01 -6.466000e-01  0.000000e+00
      vertex  -9.466000e-01 -4.851000e-01 -2.806000e-01
      vertex  -7.538000e-01 -7.503000e-01 -2.806000e-01
    endloop
  endfacet
  facet normal -7.047616e-01 -7.047616e-01 -8.137675e-02
    outer loop
      vertex  -8.899000e-01 -6.466000e-01  0.000000e+00
      vertex  -7.538000e-01 -7.503000e-01 -2.806000e-01
      vertex  -6.466000e-01 -8.899000e-01  0.000000e+00
    endloop
  endfacet
  facet normal -5.885231e-01 -7.907164e-01 -1.685473e-01
    outer loop
      vertex  -6.466000e-01 -8.899000e-01  0.000000e+00
      vertex  -7.538000e-01 -7.503000e-01 -2.806000e-01
      vertex  -4.941000e-01 -9.489000e-01 -2.557000e-01
    endloop
  endfacet
  facet normal -9.049073e-01 -1.613289e-01 -3.938471e-01
    outer loop
      vertex  -1.055200e+00 -1.767000e-01 -2.557000e-01
      vertex  -9.839000e-01 -0.000000e+00 -4.919000e-01
      vertex  -9.049000e-01 -2.859000e-01 -5.563000e-01
    endloop
  endfacet
  facet normal -8.943923e-01 -2.872707e-01 -3.428382e-01
    outer loop
      vertex  -1.055200e+00 -1.767000e-01 -2.557000e-01
      vertex  -9.049000e-01 -2.859000e-01 -5.563000e-01
      vertex  -9.466000e-01 -4.851000e-01 -2.806000e-01
    endloop
  endfacet
  facet normal -8.054268e-01 -4.158728e-01 -4.223002e-01
    outer loop
      vertex  -9.466000e-01 -4.851000e-01 -2.806000e-01
      vertex  -9.049000e-01 -2.859000e-01 -5.563000e-01
      vertex  -7.570000e-01 -5.500000e-01 -5.783000e-01
    endloop
  endfacet
  facet normal -7.543384e-01 -5.484030e-01 -3.608707e-01
    outer loop
      vertex  -9.466000e-01 -4.851000e-01 -2.806000e-01
      vertex  -7.570000e-01 -5.500000e-01 -5.783000e-01
      vertex  -7.538000e-01 -7.503000e-01 -2.806000e-01
    endloop
  endfacet
  facet normal -6.445066e-01 -6.375666e-01 -4.220428e-01
    outer loop
      vertex  -7.538000e-01 -7.503000e-01 -2.806000e-01
      vertex  -7.570000e-01 -5.500000e-01 -5.783000e-01
      vertex  -5.515000e-01 -7.723000e-01 -5.563000e-01
    endloop
  endfacet
  facet normal -5.497520e-01 -7.618393e-01 -3.425983e-01
    outer loop
      vertex  -7.538000e-01 -7.503000e-01 -2.806000e-01
      vertex  -5.515000e-01 -7.723000e-01 -5.563000e-01
      vertex  -4.941000e-01 -9.489000e-01 -2.557000e-01
    endloop
  endfacet
  facet normal -4.329093e-01 -8.109028e-01 -3.937339e-01
    outer loop
      vertex  -4.941000e-01 -9.489000e-01 -2.557000e-01
      vertex  -5.515000e-01 -7.723000e-01 -5.563000e-01
      vertex  -3.040000e-01 -9.357000e-01 -4.919000e-01
    endloop
  endfacet
  facet normal  2.958206e-01 -9.104880e-01  2.889667e-01
    outer loop
      vertex   3.040000e-01 -9.357000e-01  4.919000e-01
      vertex   1.580000e-01 -1.058100e+00  2.557000e-01
      vertex   4.941000e-01 -9.489000e-01  2.557000e-01
    endloop
  endfacet
  facet normal  1.560039e-01 -9.856082e-01  6.510916e-02
    outer loop
      vertex   1.580000e-01 -1.058100e+00  2.557000e-01
      vertex   0.000000e+00 -1.100000e+00  0.000000e+00
      vertex   3.399000e-01 -1.046200e+00  0.000000e+00
    endloop
  endfacet
  facet normal  3.043484e-01 -9.367353e-01  1.729131e-01
    outer loop
      vertex   1.580000e-01 -1.058100e+00  2.557000e-01
      vertex   3.399000e-01 -1.046200e+00  0.000000e+00
      vertex   4.941000e-01 -9.489000e-01  2.557000e-01
    endloop
  endfacet
  facet normal  4.530938e-01 -8.890842e-01  6.507968e-02
    outer loop
      vertex   4.941000e-01 -9.489000e-01  2.557000e-01
      vertex   3.399000e-01 -1.046200e+00  0.000000e+00
      vertex   6.466000e-01 -8.899000e-01  0.000000e+00
    endloop
  endfacet
  facet normal  1.129066e-02 -9.856392e-01 -1.684875e-01
    outer loop
      vertex   0.000000e+00 -1.100000e+00  0.000000e+00
      vertex  -1.580000e-01 -1.058100e+00 -2.557000e-01
      vertex   1.688000e-01 -1.050100e+00 -2.806000e-01
    endloop
  endfacet
  facet normal  1.558177e-01 -9.844320e-01 -8.132996e-02
    outer loop
      vertex   0.000000e+00 -1.100000e+00  0.000000e+00
      vertex   1.688000e-01 -1.050100e+00 -2.806000e-01
      vertex   3.399000e-01 -1.046200e+00  0.000000e+00
    endloop
  endfacet
  facet normal  3.042686e-01 -9.368353e-01 -1.725116e-01
    outer loop
      vertex   3.399000e-01 -1.046200e+00  0.000000e+00
      vertex   1.688000e-01 -1.050100e+00 -2.806000e-01
      vertex   4.807000e-01 -9.488000e-01 -2.806000e-01
    endloop
  endfacet
  facet normal  4.525583e-01 -8.880336e-01 -8.116273e-02
    outer loop
      vertex   3.399000e-01 -1.046200e+00  0.000000e+00
      vertex   4.807000e-01 -9.488000e-01 -2.806000e-01
      vertex   6.466000e-01 -8.899000e-01  0.000000e+00
    endloop
  endfacet
  facet normal  5.701680e-01 -8.041009e-01 -1.683155e-01
    outer loop
      vertex   6.466000e-01 -8.899000e-01  0.000000e+00
      vertex   4.807000e-01 -9.488000e-01 -2.806000e-01
      vertex   7.498000e-01 -7.632000e-01 -2.557000e-01
    endloop
  endfacet
  facet normal -1.261602e-01 -9.104824e-01 -3.938342e-01
    outer loop
      vertex  -1.580000e-01 -1.058100e+00 -2.557000e-01
      vertex  -3.040000e-01 -9.357000e-01 -4.919000e-01
      vertex  -7.700000e-03 -9.489000e-01 -5.563000e-01
    endloop
  endfacet
  facet normal -3.124348e-03 -9.393960e-01 -3.428198e-01
    outer loop
      vertex  -1.580000e-01 -1.058100e+00 -2.557000e-01
      vertex  -7.700000e-03 -9.489000e-01 -5.563000e-01
      vertex   1.688000e-01 -1.050100e+00 -2.806000e-01
    endloop
  endfacet
  facet normal  1.464940e-01 -8.946051e-01 -4.221626e-01
    outer loop
      vertex   1.688000e-01 -1.050100e+00 -2.806000e-01
      vertex  -7.700000e-03 -9.489000e-01 -5.563000e-01
      vertex   2.892000e-01 -8.899000e-01 -5.783000e-01
    endloop
  endfacet
  facet normal  2.880912e-01 -8.870256e-01 -3.608172e-01
    outer loop
      vertex   1.688000e-01 -1.050100e+00 -2.806000e-01
      vertex   2.892000e-01 -8.899000e-01 -5.783000e-01
      vertex   4.807000e-01 -9.488000e-01 -2.806000e-01
    endloop
  endfacet
  facet normal  4.072137e-01 -8.098992e-01 -4.221851e-01
    outer loop
      vertex   4.807000e-01 -9.488000e-01 -2.806000e-01
      vertex   2.892000e-01 -8.899000e-01 -5.783000e-01
      vertex   5.640000e-01 -7.632000e-01 -5.563000e-01
    endloop
  endfacet
  facet normal  5.546450e-01 -7.581822e-01 -3.428245e-01
    outer loop
      vertex   4.807000e-01 -9.488000e-01 -2.806000e-01
      vertex   5.640000e-01 -7.632000e-01 -5.563000e-01
      vertex   7.498000e-01 -7.632000e-01 -2.557000e-01
    endloop
  endfacet
  facet normal  6.372525e-01 -6.623930e-01 -3.938840e-01
    outer loop
      vertex   7.498000e-01 -7.632000e-01 -2.557000e-01
      vertex   5.640000e-01 -7.632000e-01 -5.563000e-01
      vertex   7.960000e-01 -5.783000e-01 -4.919000e-01
    endloop
  endfacet
  facet normal  7.745258e-01  5.626756e-01 -2.889740e-01
    outer loop
      vertex   7.960000e-01  5.783000e-01 -4.919000e-01
      vertex   7.498000e-01  7.632000e-01 -2.557000e-01
      vertex   9.575000e-01  4.773000e-01 -2.557000e-01
    endloop
  endfacet
  facet normal  7.056184e-01  7.056184e-01 -6.484964e-02
    outer loop
      vertex   7.498000e-01  7.632000e-01 -2.557000e-01
      vertex   6.466000e-01  8.899000e-01  0.000000e+00
      vertex   8.899000e-01  6.466000e-01  0.000000e+00
    endloop
  endfacet
  facet normal  7.968952e-01  5.789266e-01 -1.726328e-01
    outer loop
      vertex   7.498000e-01  7.632000e-01 -2.557000e-01
      vertex   8.899000e-01  6.466000e-01  0.000000e+00
      vertex   9.575000e-01  4.773000e-01 -2.557000e-01
    endloop
  endfacet
  facet normal  8.890919e-01  4.530977e-01 -6.494672e-02
    outer loop
      vertex   9.575000e-01  4.773000e-01 -2.557000e-01
      vertex   8.899000e-01  6.466000e-01  0.000000e+00
      vertex   1.046200e+00  3.399000e-01  0.000000e+00
    endloop
  endfacet
  facet normal  5.885231e-01  7.907164e-01  1.685473e-01
    outer loop
      vertex   6.466000e-01  8.899000e-01  0.000000e+00
      vertex   4.941000e-01  9.489000e-01  2.557000e-01
      vertex   7.538000e-01  7.503000e-01  2.806000e-01
    endloop
  endfacet
  facet normal  7.047616e-01  7.047616e-01  8.137680e-02
    outer loop
      vertex   6.466000e-01  8.899000e-01  0.000000e+00
      vertex   7.538000e-01  7.503000e-01  2.806000e-01
      vertex   8.899000e-01  6.466000e-01  0.000000e+00
    endloop
  endfacet
  facet normal  7.967336e-01  5.792243e-01  1.723804e-01
    outer loop
      vertex   8.899000e-01  6.466000e-01  0.000000e+00
      vertex   7.538000e-01  7.503000e-01  2.806000e-01
      vertex   9.466000e-01  4.851000e-01  2.806000e-01
    endloop
  endfacet
  facet normal  8.880432e-01  4.525632e-01  8.102966e-02
    outer loop
      vertex   8.899000e-01  6.466000e-01  0.000000e+00
      vertex   9.466000e-01  4.851000e-01  2.806000e-01
      vertex   1.046200e+00  3.399000e-01  0.000000e+00
    endloop
  endfacet
  facet normal  9.339435e-01  3.152857e-01  1.683581e-01
    outer loop
      vertex   1.046200e+00  3.399000e-01  0.000000e+00
      vertex   9.466000e-01  4.851000e-01  2.806000e-01
      vertex   1.055200e+00  1.767000e-01  2.557000e-01
    endloop
  endfacet
  facet normal  4.329093e-01  8.109028e-01  3.937339e-01
    outer loop
      vertex   4.941000e-01  9.489000e-01  2.557000e-01
      vertex   3.040000e-01  9.357000e-01  4.919000e-01
      vertex   5.515000e-01  7.723000e-01  5.563000e-01
    endloop
  endfacet
  facet normal  5.497520e-01  7.618393e-01  3.425983e-01
    outer loop
      vertex   4.941000e-01  9.489000e-01  2.557000e-01
      vertex   5.515000e-01  7.723000e-01  5.563000e-01
      vertex   7.538000e-01  7.503000e-01  2.806000e-01
    endloop
  endfacet
  facet normal  6.445066e-01  6.375666e-01  4.220428e-01
    outer loop
      vertex   7.538000e-01  7.503000e-01  2.806000e-01
      vertex   5.515000e-01  7.723000e-01  5.563000e-01
      vertex   7.570000e-01  5.500000e-01  5.783000e-01
    endloop
  endfacet
  facet normal  7.543384e-01  5.484030e-01  3.608707e-01
    outer loop
      vertex   7.538000e-01  7.503000e-01  2.806000e-01
      vertex   7.570000e-01  5.500000e-01  5.783000e-01
      vertex   9.466000e-01  4.851000e-01  2.806000e-01
    endloop
  endfacet
  facet normal  8.054268e-01  4.158728e-01  4.223002e-01
    outer loop
      vertex   9.466000e-01  4.851000e-01  2.806000e-01
      vertex   7.570000e-01  5.500000e-01  5.783000e-01
      vertex   9.049000e-01  2.859000e-01  5.563000e-01
    endloop
  endfacet
  facet normal  8.943923e-01  2.872707e-01  3.428382e-01
    outer loop
      vertex   9.466000e-01  4.851000e-01  2.806000e-01
      vertex   9.049000e-01  2.859000e-01  5.563000e-01
      vertex   1.055200e+00  1.767000e-01  2.557000e-01
    endloop
  endfacet
  facet normal  9.049073e-01  1.613289e-01  3.938471e-01
    outer loop
      vertex   1.055200e+00  1.767000e-01  2.557000e-01
      vertex   9.049000e-01  2.859000e-01  5.563000e-01
      vertex   9.839000e-01  0.000000e+00  4.919000e-01
    endloop
  endfacet
  facet normal -2.958206e-01  9.104880e-01 -2.889667e-01
    outer loop
      vertex  -3.040000e-01  9.357000e-01 -4.919000e-01
      vertex  -4.941000e-01  9.489000e-01 -2.557000e-01
      vertex  -1.580000e-01  1.058100e+00 -2.557000e-01
    endloop
  endfacet
  facet normal -4.530938e-01  8.890842e-01 -6.507968e-02
    outer loop
      vertex  -4.941000e-01  9.489000e-01 -2.557000e-01
      vertex  -6.466000e-01  8.899000e-01  0.000000e+00
      vertex  -3.399000e-01  1.046200e+00  0.000000e+00
    endloop
  endfacet
  facet normal -3.043484e-01  9.367353e-01 -1.729130e-01
    outer loop
      vertex  -4.941000e-01  9.489000e-01 -2.557000e-01
      vertex  -3.399000e-01  1.046200e+00  0.000000e+00
      vertex  -1.580000e-01  1.058100e+00 -2.557000e-01
    endloop
  endfacet
  facet normal -1.560039e-01  9.856082e-01 -6.510916e-02
    outer loop
      vertex  -1.580000e-01  1.058100e+00 -2.557000e-01
      vertex  -3.399000e-01  1.046200e+00  0.000000e+00
      vertex  -0.000000e+00  1.100000e+00  0.000000e+00
    endloop
  endfacet
  facet normal -5.701680e-01  8.041009e-01  1.683155e-01
    outer loop
      vertex  -6.466000e-01  8.899000e-01  0.000000e+00
      vertex  -7.498000e-01  7.632000e-01  2.557000e-01
      vertex  -4.807000e-01  9.488000e-01  2.806000e-01
    endloop
  endfacet
  facet normal -4.525583e-01  8.880336e-01  8.116273e-02
    outer loop
      vertex  -6.466000e-01  8.899000e-01  0.000000e+00
      vertex  -4.807000e-01  9.488000e-01  2.806000e-01
      vertex  -3.399000e-01  1.046200e+00  0.000000e+00
    endloop
  endfacet
  facet normal -3.042686e-01  9.368353e-01  1.725116e-01
    outer loop
      vertex  -3.399000e-01  1.046200e+00  0.000000e+00
      vertex  -4.807000e-01  9.488000e-01  2.806000e-01
      vertex  -1.688000e-01  1.050100e+00  2.806000e-01
    endloop
  endfacet
  facet normal -1.558177e-01  9.844320e-01  8.132996e-02
    outer loop
      vertex  -3.399000e-01  1.046200e+00  0.000000e+00
      vertex  -1.688000e-01  1.050100e+00  2.806000e-01
      vertex  -0.000000e+00  1.100000e+00  0.000000e+00
    endloop
  endfacet
  facet normal -1.129066e-02  9.856392e-01  1.684875e-01
    outer loop
      vertex  -0.000000e+00  1.100000e+00  0.000000e+00
      vertex  -1.688000e-01  1.050100e+00  2.806000e-01
      vertex   1.580000e-01  1.058100e+00  2.557000e-01
    endloop
  endfacet
  facet normal -6.372525e-01  6.623930e-01  3.938840e-01
    outer loop
      vertex  -7.498000e-01  7.632000e-01  2.557000e-01
      vertex  -7.960000e-01  5.783000e-01  4.919000e-01
      vertex  -5.640000e-01  7.632000e-01  5.563000e-01
    endloop
  endfacet
  facet normal -5.546450e-01  7.581822e-01  3.428245e-01
    outer loop
      vertex  -7.498000e-01  7.632000e-01  2.557000e-01
      vertex  -5.640000e-01  7.632000e-01  5.563000e-01
      vertex  -4.807000e-01  9.488000e-01  2.806000e-01
    endloop
  endfacet
  facet normal -4.072137e-01  8.098992e-01  4.221851e-01
    outer loop
      vertex  -4.807000e-01  9.488000e-01  2.806000e-01
      vertex  -5.640000e-01  7.632000e-01  5.563000e-01
      vertex  -2.892000e-01  8.899000e-01  5.783000e-01
    endloop
  endfacet
  facet normal -2.880912e-01  8.870256e-01  3.608172e-01
    outer loop
      vertex  -4.807000e-01  9.488000e-01  2.806000e-01
      vertex  -2.892000e-01  8.899000e-01  5.783000e-01
      vertex  -1.688000e-01  1.050100e+00  2.806000e-01
    endloop
  endfacet
  facet normal -1.464940e-01  8.946051e-01  4.221626e-01
    outer loop
      vertex  -1.688000e-01  1.050100e+00  2.806000e-01
      vertex  -2.892000e-01  8.899000e-01  5.783000e-01
      vertex   7.700000e-03  9.489000e-01  5.563000e-01
    endloop
  endfacet
  facet normal  3.124348e-03  9.393960e-01  3.428198e-01
    outer loop
      vertex  -1.688000e-01  1.050100e+00  2.806000e-01
      vertex   7.700000e-03  9.489000e-01  5.563000e-01
      vertex   1.580000e-01  1.058100e+00  2.557000e-01
    endloop
  endfacet
  facet normal  1.261602e-01  9.104824e-01  3.938342e-01
    outer loop
      vertex   1.580000e-01  1.058100e+00  2.557000e-01
      vertex   7.700000e-03  9.489000e-01  5.563000e-01
      vertex   3.040000e-01  9.357000e-01  4.919000e-01
    endloop
  endfacet
  facet normal -9.573341e-01  0.000000e+00 -2.889835e-01
    outer loop
      vertex  -9.839000e-01 -0.000000e+00 -4.919000e-01
      vertex  -1.055200e+00 -1.767000e-01 -2.557000e-01
      vertex  -1.055200e+00  1.767000e-01 -2.557000e-01
    endloop
  endfacet
  facet normal -9.856230e-01 -1.560062e-01 -6.487938e-02
    outer loop
      vertex  -1.055200e+00 -1.767000e-01 -2.557000e-01
      vertex  -1.046200e+00 -3.399000e-01  0.000000e+00
      vertex  -1.100000e+00 -0.000000e+00  0.000000e+00
    endloop
  endfacet
  facet normal -9.849961e-01  0.000000e+00 -1.725767e-01
    outer loop
      vertex  -1.055200e+00 -1.767000e-01 -2.557000e-01
      vertex  -1.100000e+00 -0.000000e+00  0.000000e+00
      vertex  -1.055200e+00  1.767000e-01 -2.557000e-01
    endloop
  endfacet
  facet normal -9.856230e-01  1.560062e-01 -6.487938e-02
    outer loop
      vertex  -1.055200e+00  1.767000e-01 -2.557000e-01
      vertex  -1.100000e+00 -0.000000e+00  0.000000e+00
      vertex  -1.046200e+00  3.399000e-01  0.000000e+00
    endloop
  endfacet
  facet normal -9.408961e-01 -2.937964e-01  1.685175e-01
    outer loop
      vertex  -1.046200e+00 -3.399000e-01  0.000000e+00
      vertex  -9.575000e-01 -4.773000e-01  2.557000e-01
      vertex  -1.050900e+00 -1.639000e-01  2.806000e-01
    endloop
  endfacet
  facet normal -9.844388e-01 -1.558188e-01  8.124479e-02
    outer loop
      vertex  -1.046200e+00 -3.399000e-01  0.000000e+00
      vertex  -1.050900e+00 -1.639000e-01  2.806000e-01
      vertex  -1.100000e+00 -0.000000e+00  0.000000e+00
    endloop
  endfacet
  facet normal -9.850334e-01  0.000000e+00  1.723634e-01
    outer loop
      vertex  -1.100000e+00 -0.000000e+00  0.000000e+00
      vertex  -1.050900e+00 -1.639000e-01  2.806000e-01
      vertex  -1.050900e+00  1.639000e-01  2.806000e-01
    endloop
  endfacet
  facet normal -9.844388e-01  1.558188e-01  8.124479e-02
    outer loop
      vertex  -1.100000e+00 -0.000000e+00  0.000000e+00
      vertex  -1.050900e+00  1.639000e-01  2.806000e-01
      vertex  -1.046200e+00  3.399000e-01  0.000000e+00
    endloop
  endfacet
  facet normal -9.408961e-01  2.937964e-01  1.685175e-01
    outer loop
      vertex  -1.046200e+00  3.399000e-01  0.000000e+00
      vertex  -1.050900e+00  1.639000e-01  2.806000e-01
      vertex  -9.575000e-01  4.773000e-01  2.557000e-01
    endloop
  endfacet
  facet normal -8.269520e-01 -4.013230e-01  3.938150e-01
    outer loop
      vertex  -9.575000e-01 -4.773000e-01  2.557000e-01
      vertex  -7.960000e-01 -5.783000e-01  4.919000e-01
      vertex  -9.001000e-01 -3.006000e-01  5.563000e-01
    endloop
  endfacet
  facet normal -8.924841e-01 -2.932139e-01  3.427793e-01
    outer loop
      vertex  -9.575000e-01 -4.773000e-01  2.557000e-01
      vertex  -9.001000e-01 -3.006000e-01  5.563000e-01
      vertex  -1.050900e+00 -1.639000e-01  2.806000e-01
    endloop
  endfacet
  facet normal -8.960892e-01 -1.370229e-01  4.221952e-01
    outer loop
      vertex  -1.050900e+00 -1.639000e-01  2.806000e-01
      vertex  -9.001000e-01 -3.006000e-01  5.563000e-01
      vertex  -9.357000e-01 -0.000000e+00  5.783000e-01
    endloop
  endfacet
  facet normal -9.326089e-01  0.000000e+00  3.608886e-01
    outer loop
      vertex  -1.050900e+00 -1.639000e-01  2.806000e-01
      vertex  -9.357000e-01 -0.000000e+00  5.783000e-01
      vertex  -1.050900e+00  1.639000e-01  2.806000e-01
    endloop
  endfacet
  facet normal -8.960892e-01  1.370229e-01  4.221952e-01
    outer loop
      vertex  -1.050900e+00  1.639000e-01  2.806000e-01
      vertex  -9.357000e-01 -0.000000e+00  5.783000e-01
      vertex  -9.001000e-01  3.006000e-01  5.563000e-01
    endloop
  endfacet
  facet normal -8.924841e-01  2.932139e-01  3.427793e-01
    outer loop
      vertex  -1.050900e+00  1.639000e-01  2.806000e-01
      vertex  -9.001000e-01  3.006000e-01  5.563000e-01
      vertex  -9.575000e-01  4.773000e-01  2.557000e-01
    endloop
  endfacet
  facet normal -8.269520e-01  4.013230e-01  3.938150e-01
    outer loop
      vertex  -9.575000e-01  4.773000e-01  2.557000e-01
      vertex  -9.001000e-01  3.006000e-01  5.563000e-01
      vertex  -7.960000e-01  5.783000e-01  4.919000e-01
    endloop
  endfacet
  facet normal -2.958206e-01 -9.104880e-01 -2.889667e-01
    outer loop
      vertex  -3.040000e-01 -9.357000e-01 -4.919000e-01
      vertex  -1.580000e-01 -1.058100e+00 -2.557000e-01
      vertex  -4.941000e-01 -9.489000e-01 -2.557000e-01
    endloop
  endfacet
  facet normal -1.560039e-01 -9.856082e-01 -6.510916e-02
    outer loop
      vertex  -1.580000e-01 -1.058100e+00 -2.557000e-01
      vertex   0.000000e+00 -1.100000e+00  0.000000e+00
      vertex  -3.399000e-01 -1.046200e+00  0.000000e+00
    endloop
  endfacet
  facet normal -3.043484e-01 -9.367353e-01 -1.729131e-01
    outer loop
      vertex  -1.580000e-01 -1.058100e+00 -2.557000e-01
      vertex  -3.399000e-01 -1.046200e+00  0.000000e+00
      vertex  -4.941000e-01 -9.489000e-01 -2.557000e-01
    endloop
  endfacet
  facet normal -4.530938e-01 -8.890842e-01 -6.507968e-02
    outer loop
      vertex  -4.941000e-01 -9.489000e-01 -2.557000e-01
      vertex  -3.399000e-01 -1.046200e+00  0.000000e+00
      vertex  -6.466000e-01 -8.899000e-01  0.000000e+00
    endloop
  endfacet
  facet normal -1.129066e-02 -9.856392e-01  1.684875e-01
    outer loop
      vertex   0.000000e+00 -1.100000e+00  0.000000e+00
      vertex   1.580000e-01 -1.058100e+00  2.557000e-01
      vertex  -1.688000e-01 -1.050100e+00  2.806000e-01
    endloop
  endfacet
  facet normal -1.558177e-01 -9.844320e-01  8.132996e-02
    outer loop
      vertex   0.000000e+00 -1.100000e+00  0.000000e+00
      vertex  -1.688000e-01 -1.050100e+00  2.806000e-01
      vertex  -3.399000e-01 -1.046200e+00  0.000000e+00
    endloop
  endfacet
  facet normal -3.042686e-01 -9.368353e-01  1.725116e-01
    outer loop
      vertex  -3.399000e-01 -1.046200e+00  0.000000e+00
      vertex  -1.688000e-01 -1.050100e+00  2.806000e-01
      vertex  -4.807000e-01 -9.488000e-01  2.806000e-01
    endloop
  endfacet
  facet normal -4.525583e-01 -8.880336e-01  8.116273e-02
    outer loop
      vertex  -3.399000e-01 -1.046200e+00  0.000000e+00
      vertex  -4.807000e-01 -9.488000e-01  2.806000e-01
      vertex  -6.466000e-01 -8.899000e-01  0.000000e+00
    endloop
  endfacet
  facet normal -5.701680e-01 -8.041009e-01  1.683155e-01
    outer loop
      vertex  -6.466000e-01 -8.899000e-01  0.000000e+00
      vertex  -4.807000e-01 -9.488000e-01  2.806000e-01
      vertex  -7.498000e-01 -7.632000e-01  2.557000e-01
    endloop
  endfacet
  facet normal  1.261602e-01 -9.104824e-01  3.938342e-01
    outer loop
      vertex   1.580000e-01 -1.058100e+00  2.557000e-01
      vertex   3.040000e-01 -9.357000e-01  4.919000e-01
      vertex   7.700000e-03 -9.489000e-01  5.563000e-01
    endloop
  endfacet
  facet normal  3.124348e-03 -9.393960e-01  3.428198e-01
    outer loop
      vertex   1.580000e-01 -1.058100e+00  2.557000e-01
      vertex   7.700000e-03 -9.489000e-01  5.563000e-01
      vertex  -1.688000e-01 -1.050100e+00  2.806000e-01
    endloop
  endfacet
  facet normal -1.464940e-01 -8.946051e-01  4.221626e-01
    outer loop
      vertex  -1.688000e-01 -1.050100e+00  2.806000e-01
      vertex   7.700000e-03 -9.489000e-01  5.563000e-01
      vertex  -2.892000e-01 -8.899000e-01  5.783000e-01
    endloop
  endfacet
  facet normal -2.880912e-01 -8.870256e-01  3.608172e-01
    outer loop
      vertex  -1.688000e-01 -1.050100e+00  2.806000e-01
      vertex  -2.892000e-01 -8.899000e-01  5.783000e-01
      vertex  -4.807000e-01 -9.488000e-01  2.806000e-01
    endloop
  endfacet
  facet normal -4.072137e-01 -8.098992e-01  4.221851e-01
    outer loop
      vertex  -4.807000e-01 -9.488000e-01  2.806000e-01
      vertex  -2.892000e-01 -8.899000e-01  5.783000e-01
      vertex  -5.640000e-01 -7.632000e-01  5.563000e-01
    endloop
  endfacet
  facet normal -5.546450e-01 -7.581822e-01  3.428245e-01
    outer loop
      vertex  -4.807000e-01 -9.488000e-01  2.806000e-01
      vertex  -5.640000e-01 -7.632000e-01  5.563000e-01
      vertex  -7.498000e-01 -7.632000e-01  2.557000e-01
    endloop
  endfacet
  facet normal -6.372525e-01 -6.623930e-01  3.938840e-01
    outer loop
      vertex  -7.498000e-01 -7.632000e-01  2.557000e-01
      vertex  -5.640000e-01 -7.632000e-01  5.563000e-01
      vertex  -7.960000e-01 -5.783000e-01  4.919000e-01
    endloop
  endfacet
  facet normal  7.745258e-01 -5.626756e-01 -2.889740e-01
    outer loop
      vertex   7.960000e-01 -5.783000e-01 -4.919000e-01
      vertex   9.575000e-01 -4.773000e-01 -2.557000e-01
      vertex   7.498000e-01 -7.632000e-01 -2.557000e-01
    endloop
  endfacet
  facet normal  8.890919e-01 -4.530977e-01 -6.494672e-02
    outer loop
      vertex   9.575000e-01 -4.773000e-01 -2.557000e-01
      vertex   1.046200e+00 -3.399000e-01  0.000000e+00
      vertex   8.899000e-01 -6.466000e-01  0.000000e+00
    endloop
  endfacet
  facet normal  7.968952e-01 -5.789266e-01 -1.726328e-01
    outer loop
      vertex   9.575000e-01 -4.773000e-01 -2.557000e-01
      vertex   8.899000e-01 -6.466000e-01  0.000000e+00
      vertex   7.498000e-01 -7.632000e-01 -2.557000e-01
    endloop
  endfacet
  facet normal  7.056184e-01 -7.056184e-01 -6.484964e-02
    outer loop
      vertex   7.498000e-01 -7.632000e-01 -2.557000e-01
      vertex   8.899000e-01 -6.466000e-01  0.000000e+00
      vertex   6.466000e-01 -8.899000e-01  0.000000e+00
    endloop
  endfacet
  facet normal  9.339435e-01 -3.152857e-01  1.683581e-01
    outer loop
      vertex   1.046200e+00 -3.399000e-01  0.000000e+00
      vertex   1.055200e+00 -1.767000e-01  2.557000e-01
      vertex   9.466000e-01 -4.851000e-01  2.806000e-01
    endloop
  endfacet
  facet normal  8.880432e-01 -4.525632e-01  8.102966e-02
    outer loop
      vertex   1.046200e+00 -3.399000e-01  0.000000e+00
      vertex   9.466000e-01 -4.851000e-01  2.806000e-01
      vertex   8.899000e-01 -6.466000e-01  0.000000e+00
    endloop
  endfacet
  facet normal  7.967336e-01 -5.792243e-01  1.723804e-01
    outer loop
      vertex   8.899000e-01 -6.466000e-01  0.000000e+00
      vertex   9.466000e-01 -4.851000e-01  2.806000e-01
      vertex   7.538000e-01 -7.503000e-01  2.806000e-01
    endloop
  endfacet
  facet normal  7.047616e-01 -7.047616e-01  8.137675e-02
    outer loop
      vertex   8.899000e-01 -6.466000e-01  0.000000e+00
      vertex   7.538000e-01 -7.503000e-01  2.806000e-01
      vertex   6.466000e-01 -8.899000e-01  0.000000e+00
    endloop
  endfacet
  facet normal  5.885231e-01 -7.907164e-01  1.685473e-01
    outer loop
      vertex   6.466000e-01 -8.899000e-01  0.000000e+00
      vertex   7.538000e-01 -7.503000e-01  2.806000e-01
      vertex   4.941000e-01 -9.489000e-01  2.557000e-01
    endloop
  endfacet
  facet normal  9.049073e-01 -1.613289e-01  3.938471e-01
    outer loop
      vertex   1.055200e+00 -1.767000e-01  2.557000e-01
      vertex   9.839000e-01  0.000000e+00  4.919000e-01
      vertex   9.049000e-01 -2.859000e-01  5.563000e-01
    endloop
  endfacet
  facet normal  8.943923e-01 -2.872707e-01  3.428382e-01
    outer loop
      vertex   1.055200e+00 -1.767000e-01  2.557000e-01
      vertex   9.049000e-01 -2.859000e-01  5.563000e-01
      vertex   9.466000e-01 -4.851000e-01  2.806000e-01
    endloop
  endfacet
  facet normal  8.054268e-01 -4.158728e-01  4.223002e-01
    outer loop
      vertex   9.466000e-01 -4.851000e-01  2.806000e-01
      vertex   9.049000e-01 -2.859000e-01  5.563000e-01
      vertex   7.570000e-01 -5.500000e-01  5.783000e-01
    endloop
  endfacet
  facet normal  7.543384e-01 -5.484030e-01  3.608707e-01
    outer loop
      vertex   9.466000e-01 -4.851000e-01  2.806000e-01
      vertex   7.570000e-01 -5.500000e-01  5.783000e-01
      vertex   7.538000e-01 -7.503000e-01  2.806000e-01
    endloop
  endfacet
  facet normal  6.445066e-01 -6.375666e-01  4.220428e-01
    outer loop
      vertex   7.538000e-01 -7.503000e-01  2.806000e-01
      vertex   7.570000e-01 -5.500000e-01  5.783000e-01
      vertex   5.515000e-01 -7.723000e-01  5.563000e-01
    endloop
  endfacet
  facet normal  5.497520e-01 -7.618393e-01  3.425983e-01
    outer loop
      vertex   7.538000e-01 -7.503000e-01  2.806000e-01
      vertex   5.515000e-01 -7.723000e-01  5.563000e-01
      vertex   4.941000e-01 -9.489000e-01  2.557000e-01
    endloop
  endfacet
  facet normal  4.329093e-01 -8.109028e-01  3.937339e-01
    outer loop
      vertex   4.941000e-01 -9.489000e-01  2.557000e-01
      vertex   5.515000e-01 -7.723000e-01  5.563000e-01
      vertex   3.040000e-01 -9.357000e-01  4.919000e-01
    endloop
  endfacet
  facet normal  5.246362e-02  1.614746e-01 -9.854814e-01
    outer loop
      vertex   0.000000e+00  0.000000e+00 -1.100000e+00
      vertex  -9.290000e-02  2.859000e-01 -1.058100e+00
      vertex   2.432000e-01  1.767000e-01 -1.058100e+00
    endloop
  endfacet
  facet normal -3.040038e-02  4.121542e-01 -9.106068e-01
    outer loop
      vertex  -9.290000e-02  2.859000e-01 -1.058100e+00
      vertex  -1.787000e-01  5.500000e-01 -9.357000e-01
      vertex   1.520000e-01  4.679000e-01 -9.839000e-01
    endloop
  endfacet
  facet normal  8.832120e-02  2.718384e-01 -9.582814e-01
    outer loop
      vertex  -9.290000e-02  2.859000e-01 -1.058100e+00
      vertex   1.520000e-01  4.679000e-01 -9.839000e-01
      vertex   2.432000e-01  1.767000e-01 -1.058100e+00
    endloop
  endfacet
  facet normal  2.668166e-01  3.155937e-01 -9.106094e-01
    outer loop
      vertex   2.432000e-01  1.767000e-01 -1.058100e+00
      vertex   1.520000e-01  4.679000e-01 -9.839000e-01
      vertex   4.679000e-01  3.399000e-01 -9.357000e-01
    endloop
  endfacet
  facet normal -1.027283e-01  6.340922e-01 -7.664033e-01
    outer loop
      vertex  -1.787000e-01  5.500000e-01 -9.357000e-01
      vertex  -2.509000e-01  7.723000e-01 -7.421000e-01
      vertex   6.690000e-02  7.364000e-01 -8.144000e-01
    endloop
  endfacet
  facet normal  1.005276e-02  5.360646e-01 -8.441172e-01
    outer loop
      vertex  -1.787000e-01  5.500000e-01 -9.357000e-01
      vertex   6.690000e-02  7.364000e-01 -8.144000e-01
      vertex   1.520000e-01  4.679000e-01 -9.839000e-01
    endloop
  endfacet
  facet normal  1.839828e-01  5.657380e-01 -8.037978e-01
    outer loop
      vertex   1.520000e-01  4.679000e-01 -9.839000e-01
      vertex   6.690000e-02  7.364000e-01 -8.144000e-01
      vertex   3.787000e-01  6.350000e-01 -8.144000e-01
    endloop
  endfacet
  facet normal  3.069587e-01  4.397278e-01 -8.440474e-01
    outer loop
      vertex   1.520000e-01  4.679000e-01 -9.839000e-01
      vertex   3.787000e-01  6.350000e-01 -8.144000e-01
      vertex   4.679000e-01  3.399000e-01 -9.357000e-01
    endloop
  endfacet
  facet normal  4.558096e-01  4.527691e-01 -7.663144e-01
    outer loop
      vertex   4.679000e-01  3.399000e-01 -9.357000e-01
      vertex   3.787000e-01  6.350000e-01 -8.144000e-01
      vertex   6.569000e-01  4.773000e-01 -7.421000e-01
    endloop
  endfacet
  facet normal -1.585475e-01  8.109326e-01 -5.632504e-01
    outer loop
      vertex  -2.509000e-01  7.723000e-01 -7.421000e-01
      vertex  -3.040000e-01  9.357000e-01 -4.919000e-01
      vertex  -7.700000e-03  9.489000e-01 -5.563000e-01
    endloop
  endfacet
  facet normal -6.063041e-02  7.619178e-01 -6.448296e-01
    outer loop
      vertex  -2.509000e-01  7.723000e-01 -7.421000e-01
      vertex  -7.700000e-03  9.489000e-01 -5.563000e-01
      vertex   6.690000e-02  7.364000e-01 -8.144000e-01
    endloop
  endfacet
  facet normal  1.101462e-01  7.826979e-01 -6.125779e-01
    outer loop
      vertex   6.690000e-02  7.364000e-01 -8.144000e-01
      vertex  -7.700000e-03  9.489000e-01 -5.563000e-01
      vertex   2.892000e-01  8.899000e-01 -5.783000e-01
    endloop
  endfacet
  facet normal  2.287954e-01  7.035344e-01 -6.728240e-01
    outer loop
      vertex   6.690000e-02  7.364000e-01 -8.144000e-01
      vertex   2.892000e-01  8.899000e-01 -5.783000e-01
      vertex   3.787000e-01  6.350000e-01 -8.144000e-01
    endloop
  endfacet
  facet normal  3.708006e-01  6.978205e-01 -6.128242e-01
    outer loop
      vertex   3.787000e-01  6.350000e-01 -8.144000e-01
      vertex   2.892000e-01  8.899000e-01 -5.783000e-01
      vertex   5.640000e-01  7.632000e-01 -5.563000e-01
    endloop
  endfacet
  facet normal  4.967717e-01  5.806253e-01 -6.450521e-01
    outer loop
      vertex   3.787000e-01  6.350000e-01 -8.144000e-01
      vertex   5.640000e-01  7.632000e-01 -5.563000e-01
      vertex   6.569000e-01  4.773000e-01 -7.421000e-01
    endloop
  endfacet
  facet normal  6.048806e-01  5.627180e-01 -5.634429e-01
    outer loop
      vertex   6.569000e-01  4.773000e-01 -7.421000e-01
      vertex   5.640000e-01  7.632000e-01 -5.563000e-01
      vertex   7.960000e-01  5.783000e-01 -4.919000e-01
    endloop
  endfacet
  facet normal -1.373642e-01  9.979206e-02 -9.854808e-01
    outer loop
      vertex   0.000000e+00  0.000000e+00 -1.100000e+00
      vertex  -3.006000e-01 -0.000000e+00 -1.058100e+00
      vertex  -9.290000e-02  2.859000e-01 -1.058100e+00
    endloop
  endfacet
  facet normal -4.013640e-01  9.845942e-02 -9.106112e-01
    outer loop
      vertex  -3.006000e-01 -0.000000e+00 -1.058100e+00
      vertex  -5.783000e-01 -0.000000e+00 -9.357000e-01
      vertex  -3.980000e-01  2.892000e-01 -9.839000e-01
    endloop
  endfacet
  facet normal -2.312368e-01  1.679884e-01 -9.582847e-01
    outer loop
      vertex  -3.006000e-01 -0.000000e+00 -1.058100e+00
      vertex  -3.980000e-01  2.892000e-01 -9.839000e-01
      vertex  -9.290000e-02  2.859000e-01 -1.058100e+00
    endloop
  endfacet
  facet normal -2.176581e-01  3.513175e-01 -9.106048e-01
    outer loop
      vertex  -9.290000e-02  2.859000e-01 -1.058100e+00
      vertex  -3.980000e-01  2.892000e-01 -9.839000e-01
      vertex  -1.787000e-01  5.500000e-01 -9.357000e-01
    endloop
  endfacet
  facet normal -6.348624e-01  9.819449e-02 -7.663600e-01
    outer loop
      vertex  -5.783000e-01 -0.000000e+00 -9.357000e-01
      vertex  -8.120000e-01 -0.000000e+00 -7.421000e-01
      vertex  -6.797000e-01  2.911000e-01 -8.144000e-01
    endloop
  endfacet
  facet normal -5.067239e-01  1.752285e-01 -8.441125e-01
    outer loop
      vertex  -5.783000e-01 -0.000000e+00 -9.357000e-01
      vertex  -6.797000e-01  2.911000e-01 -8.144000e-01
      vertex  -3.980000e-01  2.892000e-01 -9.839000e-01
    endloop
  endfacet
  facet normal -4.812734e-01  3.497532e-01 -8.037715e-01
    outer loop
      vertex  -3.980000e-01  2.892000e-01 -9.839000e-01
      vertex  -6.797000e-01  2.911000e-01 -8.144000e-01
      vertex  -4.869000e-01  5.564000e-01 -8.144000e-01
    endloop
  endfacet
  facet normal -3.233102e-01  4.278560e-01 -8.440437e-01
    outer loop
      vertex  -3.980000e-01  2.892000e-01 -9.839000e-01
      vertex  -4.869000e-01  5.564000e-01 -8.144000e-01
      vertex  -1.787000e-01  5.500000e-01 -9.357000e-01
    endloop
  endfacet
  facet normal -2.897234e-01  5.733402e-01 -7.663820e-01
    outer loop
      vertex  -1.787000e-01  5.500000e-01 -9.357000e-01
      vertex  -4.869000e-01  5.564000e-01 -8.144000e-01
      vertex  -2.509000e-01  7.723000e-01 -7.421000e-01
    endloop
  endfacet
  facet normal -8.201088e-01  9.969229e-02 -5.634562e-01
    outer loop
      vertex  -8.120000e-01 -0.000000e+00 -7.421000e-01
      vertex  -9.839000e-01 -0.000000e+00 -4.919000e-01
      vertex  -9.049000e-01  2.859000e-01 -5.563000e-01
    endloop
  endfacet
  facet normal -7.432867e-01  1.776231e-01 -6.449612e-01
    outer loop
      vertex  -8.120000e-01 -0.000000e+00 -7.421000e-01
      vertex  -9.049000e-01  2.859000e-01 -5.563000e-01
      vertex  -6.797000e-01  2.911000e-01 -8.144000e-01
    endloop
  endfacet
  facet normal -7.102147e-01  3.466920e-01 -6.126987e-01
    outer loop
      vertex  -6.797000e-01  2.911000e-01 -8.144000e-01
      vertex  -9.049000e-01  2.859000e-01 -5.563000e-01
      vertex  -7.570000e-01  5.500000e-01 -5.783000e-01
    endloop
  endfacet
  facet normal -5.984489e-01  4.349075e-01 -6.728405e-01
    outer loop
      vertex  -6.797000e-01  2.911000e-01 -8.144000e-01
      vertex  -7.570000e-01  5.500000e-01 -5.783000e-01
      vertex  -4.869000e-01  5.564000e-01 -8.144000e-01
    endloop
  endfacet
  facet normal -5.491270e-01  5.682736e-01 -6.128007e-01
    outer loop
      vertex  -4.869000e-01  5.564000e-01 -8.144000e-01
      vertex  -7.570000e-01  5.500000e-01 -5.783000e-01
      vertex  -5.515000e-01  7.723000e-01 -5.563000e-01
    endloop
  endfacet
  facet normal -3.987150e-01  6.518536e-01 -6.450685e-01
    outer loop
      vertex  -4.869000e-01  5.564000e-01 -8.144000e-01
      vertex  -5.515000e-01  7.723000e-01 -5.563000e-01
      vertex  -2.509000e-01  7.723000e-01 -7.421000e-01
    endloop
  endfacet
  facet normal -3.481548e-01  7.493441e-01 -5.632687e-01
    outer loop
      vertex  -2.509000e-01  7.723000e-01 -7.421000e-01
      vertex  -5.515000e-01  7.723000e-01 -5.563000e-01
      vertex  -3.040000e-01  9.357000e-01 -4.919000e-01
    endloop
  endfacet
  facet normal -1.373642e-01 -9.979206e-02 -9.854808e-01
    outer loop
      vertex   0.000000e+00  0.000000e+00 -1.100000e+00
      vertex  -9.290000e-02 -2.859000e-01 -1.058100e+00
      vertex  -3.006000e-01 -0.000000e+00 -1.058100e+00
    endloop
  endfacet
  facet normal -2.176581e-01 -3.513175e-01 -9.106048e-01
    outer loop
      vertex  -9.290000e-02 -2.859000e-01 -1.058100e+00
      vertex  -1.787000e-01 -5.500000e-01 -9.357000e-01
      vertex  -3.980000e-01 -2.892000e-01 -9.839000e-01
    endloop
  endfacet
  facet normal -2.312368e-01 -1.679884e-01 -9.582847e-01
    outer loop
      vertex  -9.290000e-02 -2.859000e-01 -1.058100e+00
      vertex  -3.980000e-01 -2.892000e-01 -9.839000e-01
      vertex  -3.006000e-01 -0.000000e+00 -1.058100e+00
    endloop
  endfacet
  facet normal -4.013640e-01 -9.845942e-02 -9.106112e-01
    outer loop
      vertex  -3.006000e-01 -0.000000e+00 -1.058100e+00
      vertex  -3.980000e-01 -2.892000e-01 -9.839000e-01
      vertex  -5.783000e-01 -0.000000e+00 -9.357000e-01
    endloop
  endfacet
  facet normal -2.897234e-01 -5.733402e-01 -7.663820e-01
    outer loop
      vertex  -1.787000e-01 -5.500000e-01 -9.357000e-01
      vertex  -2.509000e-01 -7.723000e-01 -7.421000e-01
      vertex  -4.869000e-01 -5.564000e-01 -8.144000e-01
    endloop
  endfacet
  facet normal -3.233102e-01 -4.278560e-01 -8.440437e-01
    outer loop
      vertex  -1.787000e-01 -5.500000e-01 -9.357000e-01
      vertex  -4.869000e-01 -5.564000e-01 -8.144000e-01
      vertex  -3.980000e-01 -2.892000e-01 -9.839000e-01
    endloop
  endfacet
  facet normal -4.812734e-01 -3.497532e-01 -8.037715e-01
    outer loop
      vertex  -3.980000e-01 -2.892000e-01 -9.839000e-01
      vertex  -4.869000e-01 -5.564000e-01 -8.144000e-01
      vertex  -6.797000e-01 -2.911000e-01 -8.144000e-01
    endloop
  endfacet
  facet normal -5.067239e-01 -1.752285e-01 -8.441125e-01
    outer loop
      vertex  -3.980000e-01 -2.892000e-01 -9.839000e-01
      vertex  -6.797000e-01 -2.911000e-01 -8.144000e-01
      vertex  -5.783000e-01 -0.000000e+00 -9.357000e-01
    endloop
  endfacet
  facet normal -6.348624e-01 -9.819449e-02 -7.663600e-01
    outer loop
      vertex  -5.783000e-01 -0.000000e+00 -9.357000e-01
      vertex  -6.797000e-01 -2.911000e-01 -8.144000e-01
      vertex  -8.120000e-01 -0.000000e+00 -7.421000e-01
    endloop
  endfacet
  facet normal -3.481548e-01 -7.493441e-01 -5.632687e-01
    outer loop
      vertex  -2.509000e-01 -7.723000e-01 -7.421000e-01
      vertex  -3.040000e-01 -9.357000e-01 -4.919000e-01
      vertex  -5.515000e-01 -7.723000e-01 -5.563000e-01
    endloop
  endfacet
  facet normal -3.987150e-01 -6.518536e-01 -6.450685e-01
    outer loop
      vertex  -2.509000e-01 -7.723000e-01 -7.421000e-01
      vertex  -5.515000e-01 -7.723000e-01 -5.563000e-01
      vertex  -4.869000e-01 -5.564000e-01 -8.144000e-01
    endloop
  endfacet
  facet normal -5.491270e-01 -5.682736e-01 -6.128007e-01
    outer loop
      vertex  -4.869000e-01 -5.564000e-01 -8.144000e-01
      vertex  -5.515000e-01 -7.723000e-01 -5.563000e-01
      vertex  -7.570000e-01 -5.500000e-01 -5.783000e-01
    endloop
  endfacet
  facet normal -5.984489e-01 -4.349075e-01 -6.728405e-01
    outer loop
      vertex  -4.869000e-01 -5.564000e-01 -8.144000e-01
      vertex  -7.570000e-01 -5.500000e-01 -5.783000e-01
      vertex  -6.797000e-01 -2.911000e-01 -8.144000e-01
    endloop
  endfacet
  facet normal -7.102147e-01 -3.466920e-01 -6.126987e-01
    outer loop
      vertex  -6.797000e-01 -2.911000e-01 -8.144000e-01
      vertex  -7.570000e-01 -5.500000e-01 -5.783000e-01
      vertex  -9.049000e-01 -2.859000e-01 -5.563000e-01
    endloop
  endfacet
  facet normal -7.432867e-01 -1.776231e-01 -6.449612e-01
    outer loop
      vertex  -6.797000e-01 -2.911000e-01 -8.144000e-01
      vertex  -9.049000e-01 -2.859000e-01 -5.563000e-01
      vertex  -8.120000e-01 -0.000000e+00 -7.421000e-01
    endloop
  endfacet
  facet normal -8.201088e-01 -9.969229e-02 -5.634562e-01
    outer loop
      vertex  -8.120000e-01 -0.000000e+00 -7.421000e-01
      vertex  -9.049000e-01 -2.859000e-01 -5.563000e-01
      vertex  -9.839000e-01 -0.000000e+00 -4.919000e-01
    endloop
  endfacet
  facet normal  5.246362e-02 -1.614746e-01 -9.854814e-01
    outer loop
      vertex   0.000000e+00  0.000000e+00 -1.100000e+00
      vertex   2.432000e-01 -1.767000e-01 -1.058100e+00
      vertex  -9.290000e-02 -2.859000e-01 -1.058100e+00
    endloop
  endfacet
  facet normal  2.668166e-01 -3.155937e-01 -9.106094e-01
    outer loop
      vertex   2.432000e-01 -1.767000e-01 -1.058100e+00
      vertex   4.679000e-01 -3.399000e-01 -9.357000e-01
      vertex   1.520000e-01 -4.679000e-01 -9.839000e-01
    endloop
  endfacet
  facet normal  8.832120e-02 -2.718384e-01 -9.582814e-01
    outer loop
      vertex   2.432000e-01 -1.767000e-01 -1.058100e+00
      vertex   1.520000e-01 -4.679000e-01 -9.839000e-01
      vertex  -9.290000e-02 -2.859000e-01 -1.058100e+00
    endloop
  endfacet
  facet normal -3.040038e-02 -4.121542e-01 -9.106068e-01
    outer loop
      vertex  -9.290000e-02 -2.859000e-01 -1.058100e+00
      vertex   1.520000e-01 -4.679000e-01 -9.839000e-01
      vertex  -1.787000e-01 -5.500000e-01 -9.357000e-01
    endloop
  endfacet
  facet normal  4.558096e-01 -4.527691e-01 -7.663144e-01
    outer loop
      vertex   4.679000e-01 -3.399000e-01 -9.357000e-01
      vertex   6.569000e-01 -4.773000e-01 -7.421000e-01
      vertex   3.787000e-01 -6.350000e-01 -8.144000e-01
    endloop
  endfacet
  facet normal  3.069587e-01 -4.397278e-01 -8.440474e-01
    outer loop
      vertex   4.679000e-01 -3.399000e-01 -9.357000e-01
      vertex   3.787000e-01 -6.350000e-01 -8.144000e-01
      vertex   1.520000e-01 -4.679000e-01 -9.839000e-01
    endloop
  endfacet
  facet normal  1.839828e-01 -5.657380e-01 -8.037978e-01
    outer loop
      vertex   1.520000e-01 -4.679000e-01 -9.839000e-01
      vertex   3.787000e-01 -6.350000e-01 -8.144000e-01
      vertex   6.690000e-02 -7.364000e-01 -8.144000e-01
    endloop
  endfacet
  facet normal  1.005276e-02 -5.360646e-01 -8.441171e-01
    outer loop
      vertex   1.520000e-01 -4.679000e-01 -9.839000e-01
      vertex   6.690000e-02 -7.364000e-01 -8.144000e-01
      vertex  -1.787000e-01 -5.500000e-01 -9.357000e-01
    endloop
  endfacet
  facet normal -1.027283e-01 -6.340922e-01 -7.664033e-01
    outer loop
      vertex  -1.787000e-01 -5.500000e-01 -9.357000e-01
      vertex   6.690000e-02 -7.364000e-01 -8.144000e-01
      vertex  -2.509000e-01 -7.723000e-01 -7.421000e-01
    endloop
  endfacet
  facet normal  6.048806e-01 -5.627180e-01 -5.634429e-01
    outer loop
      vertex   6.569000e-01 -4.773000e-01 -7.421000e-01
      vertex   7.960000e-01 -5.783000e-01 -4.919000e-01
      vertex   5.640000e-01 -7.632000e-01 -5.563000e-01
    endloop
  endfacet
  facet normal  4.967717e-01 -5.806253e-01 -6.450520e-01
    outer loop
      vertex   6.569000e-01 -4.773000e-01 -7.421000e-01
      vertex   5.640000e-01 -7.632000e-01 -5.563000e-01
      vertex   3.787000e-01 -6.350000e-01 -8.144000e-01
    endloop
  endfacet
  facet normal  3.708006e-01 -6.978205e-01 -6.128242e-01
    outer loop
      vertex   3.787000e-01 -6.350000e-01 -8.144000e-01
      vertex   5.640000e-01 -7.632000e-01 -5.563000e-01
      vertex   2.892000e-01 -8.899000e-01 -5.783000e-01
    endloop
  endfacet
  facet normal  2.287954e-01 -7.035344e-01 -6.728240e-01
    outer loop
      vertex   3.787000e-01 -6.350000e-01 -8.144000e-01
      vertex   2.892000e-01 -8.899000e-01 -5.783000e-01
      vertex   6.690000e-02 -7.364000e-01 -8.144000e-01
    endloop
  endfacet
  facet normal  1.101462e-01 -7.826979e-01 -6.125779e-01
    outer loop
      vertex   6.690000e-02 -7.364000e-01 -8.144000e-01
      vertex   2.892000e-01 -8.899000e-01 -5.783000e-01
      vertex  -7.700000e-03 -9.489000e-01 -5.563000e-01
    endloop
  endfacet
  facet normal -6.063041e-02 -7.619178e-01 -6.448296e-01
    outer loop
      vertex   6.690000e-02 -7.364000e-01 -8.144000e-01
      vertex  -7.700000e-03 -9.489000e-01 -5.563000e-01
      vertex  -2.509000e-01 -7.723000e-01 -7.421000e-01
    endloop
  endfacet
  facet normal -1.585475e-01 -8.109326e-01 -5.632504e-01
    outer loop
      vertex  -2.509000e-01 -7.723000e-01 -7.421000e-01
      vertex  -7.700000e-03 -9.489000e-01 -5.563000e-01
      vertex  -3.040000e-01 -9.357000e-01 -4.919000e-01
    endloop
  endfacet
  facet normal  1.697849e-01  0.000000e+00 -9.854811e-01
    outer loop
      vertex   0.000000e+00  0.000000e+00 -1.100000e+00
      vertex   2.432000e-01  1.767000e-01 -1.058100e+00
      vertex   2.432000e-01 -1.767000e-01 -1.058100e+00
    endloop
  endfacet
  facet normal  3.826246e-01  1.561476e-01 -9.106131e-01
    outer loop
      vertex   2.432000e-01  1.767000e-01 -1.058100e+00
      vertex   4.679000e-01  3.399000e-01 -9.357000e-01
      vertex   4.919000e-01 -0.000000e+00 -9.839000e-01
    endloop
  endfacet
  facet normal  2.858981e-01  0.000000e+00 -9.582600e-01
    outer loop
      vertex   2.432000e-01  1.767000e-01 -1.058100e+00
      vertex   4.919000e-01 -0.000000e+00 -9.839000e-01
      vertex   2.432000e-01 -1.767000e-01 -1.058100e+00
    endloop
  endfacet
  facet normal  3.826246e-01 -1.561476e-01 -9.106131e-01
    outer loop
      vertex   2.432000e-01 -1.767000e-01 -1.058100e+00
      vertex   4.919000e-01 -0.000000e+00 -9.839000e-01
      vertex   4.679000e-01 -3.399000e-01 -9.357000e-01
    endloop
  endfacet
  facet normal  5.714553e-01  2.936605e-01 -7.662913e-01
    outer loop
      vertex   4.679000e-01  3.399000e-01 -9.357000e-01
      vertex   6.569000e-01  4.773000e-01 -7.421000e-01
      vertex   7.210000e-01  1.639000e-01 -8.144000e-01
    endloop
  endfacet
  facet normal  5.129769e-01  1.559228e-01 -8.441225e-01
    outer loop
      vertex   4.679000e-01  3.399000e-01 -9.357000e-01
      vertex   7.210000e-01  1.639000e-01 -8.144000e-01
      vertex   4.919000e-01 -0.000000e+00 -9.839000e-01
    endloop
  endfacet
  facet normal  5.947658e-01  0.000000e+00 -8.038989e-01
    outer loop
      vertex   4.919000e-01 -0.000000e+00 -9.839000e-01
      vertex   7.210000e-01  1.639000e-01 -8.144000e-01
      vertex   7.210000e-01 -1.639000e-01 -8.144000e-01
    endloop
  endfacet
  facet normal  5.129769e-01 -1.559228e-01 -8.441225e-01
    outer loop
      vertex   4.919000e-01 -0.000000e+00 -9.839000e-01
      vertex   7.210000e-01 -1.639000e-01 -8.144000e-01
      vertex   4.679000e-01 -3.399000e-01 -9.357000e-01
    endloop
  endfacet
  facet normal  5.714553e-01 -2.936605e-01 -7.662913e-01
    outer loop
      vertex   4.679000e-01 -3.399000e-01 -9.357000e-01
      vertex   7.210000e-01 -1.639000e-01 -8.144000e-01
      vertex   6.569000e-01 -4.773000e-01 -7.421000e-01
    endloop
  endfacet
  facet normal  7.220906e-01  4.013576e-01 -5.634689e-01
    outer loop
      vertex   6.569000e-01  4.773000e-01 -7.421000e-01
      vertex   7.960000e-01  5.783000e-01 -4.919000e-01
      vertex   9.001000e-01  3.006000e-01 -5.563000e-01
    endloop
  endfacet
  facet normal  7.057384e-01  2.931401e-01 -6.449823e-01
    outer loop
      vertex   6.569000e-01  4.773000e-01 -7.421000e-01
      vertex   9.001000e-01  3.006000e-01 -5.563000e-01
      vertex   7.210000e-01  1.639000e-01 -8.144000e-01
    endloop
  endfacet
  facet normal  7.783570e-01  1.370214e-01 -6.126871e-01
    outer loop
      vertex   7.210000e-01  1.639000e-01 -8.144000e-01
      vertex   9.001000e-01  3.006000e-01 -5.563000e-01
      vertex   9.357000e-01 -0.000000e+00 -5.783000e-01
    endloop
  endfacet
  facet normal  7.398409e-01  0.000000e+00 -6.727819e-01
    outer loop
      vertex   7.210000e-01  1.639000e-01 -8.144000e-01
      vertex   9.357000e-01 -0.000000e+00 -5.783000e-01
      vertex   7.210000e-01 -1.639000e-01 -8.144000e-01
    endloop
  endfacet
  facet normal  7.783570e-01 -1.370214e-01 -6.126871e-01
    outer loop
      vertex   7.210000e-01 -1.639000e-01 -8.144000e-01
      vertex   9.357000e-01 -0.000000e+00 -5.783000e-01
      vertex   9.001000e-01 -3.006000e-01 -5.563000e-01
    endloop
  endfacet
  facet normal  7.057384e-01 -2.931401e-01 -6.449824e-01
    outer loop
      vertex   7.210000e-01 -1.639000e-01 -8.144000e-01
      vertex   9.001000e-01 -3.006000e-01 -5.563000e-01
      vertex   6.569000e-01 -4.773000e-01 -7.421000e-01
    endloop
  endfacet
  facet normal  7.220906e-01 -4.013576e-01 -5.634689e-01
    outer loop
      vertex   6.569000e-01 -4.773000e-01 -7.421000e-01
      vertex   9.001000e-01 -3.006000e-01 -5.563000e-01
      vertex   7.960000e-01 -5.783000e-01 -4.919000e-01
    endloop
  endfacet
endsolid vcg
